<?xml version="1.0" encoding="UTF-8" standalone="no"?>
<svg
   width="624"
   height="245"
   viewBox="0 0 624 245"
   version="1.1"
   xml:space="preserve"
   style="clip-rule:evenodd;fill-rule:evenodd;stroke-linecap:round;stroke-linejoin:round;stroke-miterlimit:1.5"
   id="svg466"
   sodipodi:docname="ascii_pay_banner.svg"
   inkscape:version="1.1.2 (0a00cf5339, 2022-02-04)"
   xmlns:inkscape="http://www.inkscape.org/namespaces/inkscape"
   xmlns:sodipodi="http://sodipodi.sourceforge.net/DTD/sodipodi-0.dtd"
   xmlns="http://www.w3.org/2000/svg"
   xmlns:svg="http://www.w3.org/2000/svg"
   xmlns:serif="http://www.serif.com/"><defs
     id="defs470" /><sodipodi:namedview
     id="namedview468"
     pagecolor="#ffffff"
     bordercolor="#999999"
     borderopacity="1"
     inkscape:pageshadow="0"
     inkscape:pageopacity="0"
     inkscape:pagecheckerboard="0"
     showgrid="false"
     fit-margin-top="0"
     fit-margin-left="0"
     fit-margin-right="0"
     fit-margin-bottom="0"
     lock-margins="false"
     inkscape:zoom="1.6238584"
     inkscape:cx="341.77857"
     inkscape:cy="149.33568"
     inkscape:window-width="1920"
     inkscape:window-height="1046"
     inkscape:window-x="0"
     inkscape:window-y="0"
     inkscape:window-maximized="1"
     inkscape:current-layer="svg466" /><rect
     id="Wallet-Hintergrund"
     serif:id="Wallet Hintergrund"
     x="0"
     y="0"
     width="624"
     height="245"
     style="fill:none" /><clipPath
     id="_clip1"><rect
       x="0"
       y="0"
       width="624"
       height="245"
       id="rect3" /></clipPath><g
     clip-path="url(#_clip1)"
     id="g464"><rect
       id="BG-Color"
       x="0"
       y="88.601997"
       width="624"
       height="245"
       style="fill:#71c285" /><rect
       x="0"
       y="0"
       width="624"
       height="245"
       style="fill:#71c285"
       id="rect7" /><clipPath
       id="_clip2"><rect
         x="0"
         y="0"
         width="624"
         height="245"
         id="rect9" /></clipPath><g
       clip-path="url(#_clip2)"
       id="g462"><path
         id="Image"
         d="m 613.79,20.784 c 0,-6.238 -5.065,-11.302 -11.302,-11.302 H 21.512 c -6.237,0 -11.302,5.064 -11.302,11.302 v 203.432 c 0,6.238 5.065,11.302 11.302,11.302 h 580.976 c 6.237,0 11.302,-5.064 11.302,-11.302 z"
         style="fill:#e0e0e0" /><g
         id="Background"><rect
           x="-14.068"
           y="-51.983002"
           width="652.13501"
           height="396.95901"
           style="fill:#abe1b8"
           id="rect13" /><g
           id="mandala"><g
             id="g25"><g
               id="_-pay-obj-black"
               serif:id=" pay obj black"><g
                 id="Y"><path
                   d="m 336.893,254.168 v 18.756 c 0,4.491 3.646,8.137 8.137,8.137 h 1.463 c 4.491,0 8.137,-3.646 8.137,-8.137 v -18.756"
                   style="fill:none;stroke:#5db973;stroke-width:18.93px"
                   id="path15" /></g><g
                 id="P"><path
                   d="m 280.987,294.275 h 1.463 c 4.491,0 8.137,-3.646 8.137,-8.137 v -23.833 c 0,-4.491 -3.646,-8.137 -8.137,-8.137 h -1.463 c -4.491,0 -8.137,3.646 -8.137,8.137 v 23.833"
                   style="fill:none;stroke:#5db973;stroke-width:18.93px"
                   id="path18" /></g><g
                 id="A"><path
                   id="maß"
                   d="m 322.602,286.138 v -23.833 c 0,-4.491 -3.646,-8.137 -8.137,-8.137 h -5.271"
                   style="fill:none;stroke:#5db973;stroke-width:18.93px" /></g></g><g
               id="pay-obj-white"
               serif:id="pay obj white" /></g><g
             id="g37"><path
               d="m 318.989,179.689 -5.249,-35.039 -5.249,35.039 c 0,2.897 2.352,5.249 5.249,5.249 2.897,0 5.249,-2.352 5.249,-5.249 z"
               style="fill:#70c284"
               id="path27" /><path
               d="m 368.972,195.895 12.973,-32.97 -22.065,27.72 c -1.449,2.509 -0.588,5.722 1.921,7.171 2.509,1.449 5.722,0.588 7.171,-1.921 z"
               style="fill:#70c284"
               id="path29" /><path
               d="m 404.155,234.921 27.72,-22.066 -32.969,12.974 c -2.509,1.448 -3.37,4.661 -1.921,7.17 1.448,2.509 4.661,3.37 7.17,1.922 z"
               style="fill:#70c284"
               id="path31" /><path
               d="m 228.574,225.829 -32.969,-12.974 27.719,22.066 c 2.51,1.448 5.723,0.587 7.171,-1.922 1.449,-2.509 0.588,-5.722 -1.921,-7.17 z"
               style="fill:#70c284"
               id="path33" /><path
               d="m 267.6,190.645 -22.065,-27.72 12.973,32.97 c 1.448,2.509 4.662,3.37 7.171,1.921 2.509,-1.449 3.37,-4.662 1.921,-7.171 z"
               style="fill:#70c284"
               id="path35" /></g><g
             id="g49"><circle
               cx="313.73999"
               cy="189.896"
               r="4.737"
               style="fill:#70c284"
               id="circle39" /><path
               d="m 361.69,198.008 c 2.265,1.307 3.042,4.206 1.734,6.47 -1.307,2.265 -4.206,3.041 -6.47,1.734 -2.265,-1.307 -3.041,-4.206 -1.734,-6.47 1.307,-2.265 4.206,-3.041 6.47,-1.734 z"
               style="fill:#70c284"
               id="path41" /><path
               d="m 396.793,233.11 c 1.307,2.264 0.53,5.164 -1.734,6.471 -2.264,1.307 -5.164,0.53 -6.471,-1.734 -1.307,-2.264 -0.53,-5.164 1.734,-6.471 2.264,-1.307 5.164,-0.53 6.471,1.734 z"
               style="fill:#70c284"
               id="path43" /><path
               d="m 230.687,233.11 c 1.307,-2.264 4.207,-3.041 6.471,-1.734 2.264,1.307 3.041,4.207 1.734,6.471 -1.308,2.264 -4.207,3.041 -6.471,1.734 -2.264,-1.307 -3.041,-4.207 -1.734,-6.471 z"
               style="fill:#70c284"
               id="path45" /><path
               d="m 265.789,198.008 c 2.264,-1.307 5.164,-0.531 6.471,1.734 1.307,2.264 0.53,5.163 -1.734,6.47 -2.264,1.307 -5.163,0.531 -6.471,-1.734 -1.307,-2.264 -0.53,-5.163 1.734,-6.47 z"
               style="fill:#70c284"
               id="path47" /></g><circle
             cx="313.73999"
             cy="281.061"
             r="81.599998"
             style="fill:none;stroke:#70c284;stroke-width:4.17px"
             id="circle51" /><circle
             cx="313.73999"
             cy="281.061"
             r="143.011"
             style="fill:none;stroke:#70c284;stroke-width:4.17px"
             id="circle53" /><path
             d="m 276.681,142.753 c 0,-20.453 16.605,-37.059 37.059,-37.059 20.453,0 37.059,16.606 37.059,37.059 10.227,-17.713 32.911,-23.791 50.624,-13.564 17.714,10.226 23.792,32.91 13.565,50.624 17.713,-10.227 40.397,-4.149 50.624,13.564 10.227,17.714 4.149,40.397 -13.565,50.624 20.454,0 37.059,16.606 37.059,37.06 0,20.453 -16.605,37.059 -37.059,37.059 17.714,10.227 23.792,32.911 13.565,50.624 -10.227,17.713 -32.911,23.791 -50.624,13.565 10.227,17.713 4.149,40.397 -13.565,50.624 -17.713,10.226 -40.397,4.148 -50.624,-13.565 0,20.454 -16.606,37.059 -37.059,37.059 -20.454,0 -37.059,-16.605 -37.059,-37.059 -10.227,17.713 -32.911,23.791 -50.624,13.565 -17.714,-10.227 -23.792,-32.911 -13.565,-50.624 -17.713,10.226 -40.397,4.148 -50.624,-13.565 -10.227,-17.713 -4.149,-40.397 13.565,-50.624 -20.454,0 -37.06,-16.606 -37.06,-37.059 0,-20.454 16.606,-37.06 37.06,-37.06 -17.714,-10.227 -23.792,-32.91 -13.565,-50.624 10.227,-17.713 32.911,-23.791 50.624,-13.564 -10.227,-17.714 -4.149,-40.398 13.565,-50.624 17.713,-10.227 40.397,-4.149 50.624,13.564 z"
             style="fill:none;stroke:#70c284;stroke-width:4.17px"
             id="path55" /><path
             d="m 341.695,421.336 c -5.817,9.322 -16.167,15.531 -27.955,15.531 -11.788,0 -22.138,-6.209 -27.955,-15.531 9.04,1.794 18.389,2.736 27.955,2.736 9.566,0 18.914,-0.942 27.955,-2.736 z M 219.391,388.499 c 13.992,12.298 30.399,21.908 48.415,28.024 -9.697,5.162 -21.762,5.363 -31.969,-0.53 -10.23,-5.906 -16.092,-16.488 -16.446,-27.494 z m 188.698,0 c -0.355,11.006 -6.217,21.588 -16.446,27.494 -10.207,5.893 -22.273,5.692 -31.969,0.53 18.016,-6.114 34.424,-15.724 48.415,-28.024 z M 178.278,326.994 c 6.113,18.016 15.724,34.425 28.024,48.416 -11.006,-0.355 -21.588,-6.217 -27.494,-16.446 -5.894,-10.208 -5.693,-22.273 -0.53,-31.97 z m 270.924,0 c 5.162,9.697 5.363,21.762 -0.53,31.97 -5.906,10.229 -16.488,16.091 -27.494,16.446 12.298,-13.992 21.909,-30.4 28.024,-48.416 z M 173.465,253.106 c -1.795,9.04 -2.736,18.388 -2.736,27.955 0,9.566 0.941,18.914 2.736,27.954 -9.323,-5.816 -15.531,-16.166 -15.531,-27.954 0,-11.789 6.208,-22.138 15.531,-27.955 z m 280.55,0 c 9.323,5.817 15.531,16.166 15.531,27.955 0,11.788 -6.208,22.138 -15.531,27.954 1.795,-9.04 2.736,-18.388 2.736,-27.954 0,-9.567 -0.941,-18.915 -2.736,-27.955 z M 206.302,186.711 c -12.298,13.993 -21.909,30.4 -28.024,48.416 -5.163,-9.697 -5.364,-21.762 0.53,-31.97 5.906,-10.229 16.488,-16.091 27.494,-16.446 z m 214.876,0 c 11.006,0.355 21.588,6.217 27.494,16.446 5.893,10.208 5.692,22.273 0.53,31.97 -6.113,-18.016 -15.724,-34.424 -28.024,-48.416 z M 219.391,173.622 c 0.354,-11.006 6.216,-21.588 16.446,-27.494 10.207,-5.893 22.272,-5.692 31.969,-0.53 -18.016,6.114 -34.424,15.725 -48.415,28.024 z m 140.283,-28.024 c 9.696,-5.162 21.762,-5.363 31.969,0.53 10.229,5.906 16.091,16.488 16.446,27.494 -13.992,-12.298 -30.399,-21.908 -48.415,-28.024 z m -73.889,-4.813 c 5.817,-9.322 16.167,-15.531 27.955,-15.531 11.788,0 22.138,6.209 27.955,15.531 -9.041,-1.794 -18.389,-2.735 -27.955,-2.735 -9.566,0 -18.915,0.941 -27.955,2.735 z"
             style="fill:none;stroke:#70c284;stroke-width:4.17px"
             id="path57" /><path
             d="m 279.878,420.032 c 10.855,2.64 22.196,4.04 33.862,4.04 11.666,0 23.007,-1.4 33.862,-4.04 -3.837,15.125 -17.552,26.327 -33.862,26.327 -16.31,0 -30.025,-11.202 -33.862,-26.327 z m 132.656,-35.609 c 4.272,15.033 -2.001,31.625 -16.145,39.791 -14.125,8.155 -31.603,5.31 -42.488,-5.868 22.271,-6.513 42.298,-18.303 58.633,-33.923 z m -197.589,0 c 16.337,15.621 36.366,27.411 58.633,33.923 -10.884,11.178 -28.362,14.023 -42.488,5.868 -14.143,-8.166 -20.417,-24.758 -16.145,-39.791 z m -38.49,-63.201 c 6.512,22.27 18.302,42.298 33.922,58.633 -15.033,4.272 -31.624,-2.001 -39.79,-16.145 -8.155,-14.125 -5.311,-31.604 5.868,-42.488 z m 274.57,0 c 11.178,10.884 14.023,28.363 5.868,42.488 -8.166,14.144 -24.757,20.417 -39.79,16.145 15.62,-16.336 27.411,-36.365 33.922,-58.633 z M 174.769,247.199 c -2.64,10.854 -4.04,22.196 -4.04,33.862 0,11.665 1.4,23.007 4.04,33.862 -15.125,-3.838 -26.328,-17.552 -26.328,-33.862 0,-16.311 11.203,-30.025 26.328,-33.862 z m 277.942,0 c 15.125,3.837 26.328,17.551 26.328,33.862 0,16.31 -11.203,30.024 -26.328,33.862 2.64,-10.855 4.04,-22.197 4.04,-33.862 0,-11.666 -1.4,-23.008 -4.04,-33.862 z m -276.256,-6.3 c -11.179,-10.884 -14.023,-28.363 -5.868,-42.488 8.166,-14.143 24.757,-20.417 39.79,-16.145 -15.62,16.337 -27.411,36.365 -33.922,58.633 z m 240.648,-58.633 c 15.033,-4.272 31.624,2.002 39.79,16.145 8.155,14.125 5.31,31.604 -5.868,42.488 -6.512,-22.27 -18.303,-42.298 -33.922,-58.633 z m -202.158,-4.568 c -4.272,-15.033 2.002,-31.625 16.145,-39.79 14.126,-8.156 31.604,-5.311 42.488,5.868 -22.27,6.512 -42.298,18.302 -58.633,33.922 z m 138.956,-33.922 c 10.885,-11.179 28.363,-14.024 42.488,-5.868 14.144,8.165 20.417,24.757 16.145,39.79 -16.336,-15.62 -36.365,-27.411 -58.633,-33.922 z m -74.023,-1.687 c 3.837,-15.125 17.552,-26.327 33.862,-26.327 16.31,0 30.025,11.202 33.862,26.327 -10.855,-2.64 -22.196,-4.039 -33.862,-4.039 -11.666,0 -23.007,1.399 -33.862,4.039 z"
             style="fill:none;stroke:#70c284;stroke-width:4.17px"
             id="path59" /><g
             id="g73"><path
               d="m 283.576,168.444 c 2.822,-0.757 5.727,0.92 6.483,3.742 0.756,2.822 -0.921,5.726 -3.743,6.482 -2.821,0.756 -5.726,-0.921 -6.482,-3.742 -0.756,-2.822 0.921,-5.726 3.742,-6.482 z"
               style="fill:none;stroke:#70c284;stroke-width:4.17px"
               id="path61" /><path
               d="m 343.901,168.464 c 2.821,0.756 4.498,3.661 3.742,6.483 -0.756,2.821 -3.661,4.498 -6.482,3.742 -2.822,-0.756 -4.499,-3.66 -3.743,-6.482 0.756,-2.822 3.661,-4.499 6.483,-3.743 z"
               style="fill:none;stroke:#70c284;stroke-width:4.17px"
               id="path63" /><path
               d="m 396.132,198.645 c 2.066,2.065 2.066,5.419 0,7.485 -2.065,2.065 -5.419,2.065 -7.485,0 -2.065,-2.066 -2.065,-5.42 0,-7.485 2.066,-2.066 5.42,-2.066 7.485,0 z"
               style="fill:none;stroke:#70c284;stroke-width:4.17px"
               id="path65" /><path
               d="m 426.276,250.897 c 0.756,2.822 -0.921,5.726 -3.742,6.483 -2.822,0.756 -5.727,-0.921 -6.483,-3.743 -0.756,-2.822 0.921,-5.726 3.743,-6.482 2.822,-0.756 5.726,0.921 6.482,3.742 z"
               style="fill:none;stroke:#70c284;stroke-width:4.17px"
               id="path67" /><path
               d="m 201.144,250.819 c 0.756,-2.821 3.66,-4.498 6.482,-3.742 2.822,0.756 4.499,3.66 3.743,6.482 -0.756,2.822 -3.661,4.499 -6.483,3.743 -2.821,-0.757 -4.498,-3.661 -3.742,-6.483 z"
               style="fill:none;stroke:#70c284;stroke-width:4.17px"
               id="path69" /><path
               d="m 231.324,198.587 c 2.065,-2.065 5.419,-2.065 7.485,0 2.066,2.066 2.066,5.42 0,7.486 -2.066,2.065 -5.42,2.065 -7.485,0 -2.066,-2.066 -2.066,-5.42 0,-7.486 z"
               style="fill:none;stroke:#70c284;stroke-width:4.17px"
               id="path71" /></g><g
             id="g87"><path
               d="m 147.869,255.222 c -22.451,-6.015 -21.824,-24.61 -39.583,-29.368 17.759,4.758 26.514,-11.658 48.964,-5.642"
               style="fill:none;stroke:#70c284;stroke-width:4.17px"
               id="path75" /><path
               d="m 470.287,220.427 c 22.451,-6.016 31.206,10.4 48.964,5.642 -17.758,4.758 -17.132,23.352 -39.583,29.368"
               style="fill:none;stroke:#70c284;stroke-width:4.17px"
               id="path77" /><path
               d="m 419.017,150.271 c 16.435,-16.435 32.225,-6.596 45.225,-19.596 -13,13 -3.161,28.79 -19.596,45.226"
               style="fill:none;stroke:#70c284;stroke-width:4.17px"
               id="path79" /><path
               d="m 339.538,115.15 c 6.016,-22.451 24.61,-21.825 29.368,-39.583 -4.758,17.758 11.658,26.513 5.642,48.964"
               style="fill:none;stroke:#70c284;stroke-width:4.17px"
               id="path81" /><path
               d="m 253.146,124.473 c -6.015,-22.451 10.401,-31.206 5.642,-48.964 4.759,17.758 23.353,17.132 29.369,39.583"
               style="fill:none;stroke:#70c284;stroke-width:4.17px"
               id="path83" /><path
               d="m 182.991,175.743 c -16.435,-16.435 -6.596,-32.225 -19.596,-45.225 13,13 28.79,3.161 45.225,19.596"
               style="fill:none;stroke:#70c284;stroke-width:4.17px"
               id="path85" /></g><g
             id="g101"><path
               d="m 172.444,242.508 c 0,0 -2.156,-1.485 -5.98,-3.734 -0.952,-0.56 -1.9,-1.114 -3.039,-1.682 -0.986,-0.491 -1.997,-0.97 -3.118,-1.389 -0.771,-0.287 -1.578,-0.534 -2.41,-0.733 -1.211,-0.291 -2.459,-0.482 -3.732,-0.662 -2.552,-0.36 -5.085,-0.477 -7.604,-0.799 -9.45,-1.206 -17.536,-2.635 -17.536,-2.635 -0.36,-0.097 -0.731,0.117 -0.828,0.477 -0.096,0.36 0.118,0.731 0.478,0.828 0,0 7.718,2.805 16.505,6.485 2.342,0.982 4.594,2.146 6.985,3.11 1.192,0.481 2.369,0.94 3.562,1.293 0.821,0.243 1.642,0.434 2.454,0.57 1.181,0.198 2.295,0.288 3.395,0.356 1.271,0.078 2.368,0.073 3.473,0.064 4.436,-0.037 7.046,-0.244 7.046,-0.244 0.36,0.096 0.731,-0.118 0.827,-0.478 0.097,-0.36 -0.117,-0.731 -0.478,-0.827 z"
               style="fill:#70c284;fill-opacity:0.99"
               id="path89" /><path
               d="m 455.382,243.8 c 0,0 2.61,0.208 7.046,0.244 1.105,0.009 2.202,0.015 3.473,-0.063 1.099,-0.068 2.214,-0.158 3.395,-0.356 0.811,-0.137 1.633,-0.327 2.453,-0.57 1.194,-0.354 2.371,-0.812 3.563,-1.293 2.39,-0.964 4.642,-2.129 6.985,-3.11 8.787,-3.68 16.504,-6.486 16.504,-6.486 0.361,-0.096 0.575,-0.467 0.478,-0.827 -0.096,-0.36 -0.467,-0.574 -0.827,-0.478 0,0 -8.087,1.43 -17.537,2.636 -2.519,0.321 -5.052,0.439 -7.604,0.799 -1.273,0.18 -2.521,0.371 -3.732,0.662 -0.832,0.199 -1.638,0.445 -2.409,0.733 -1.122,0.419 -2.132,0.898 -3.118,1.389 -1.14,0.568 -2.087,1.121 -3.04,1.682 -3.823,2.249 -5.98,3.734 -5.98,3.734 -0.36,0.096 -0.574,0.467 -0.478,0.827 0.097,0.36 0.468,0.574 0.828,0.477 z"
               style="fill:#70c284;fill-opacity:0.99"
               id="path91" /><path
               d="m 417.775,177.972 c 0,0 2.364,-1.126 6.224,-3.312 0.961,-0.545 1.915,-1.089 2.976,-1.792 0.918,-0.608 1.839,-1.244 2.762,-2.006 0.635,-0.523 1.251,-1.099 1.84,-1.72 0.857,-0.903 1.647,-1.888 2.439,-2.901 1.588,-2.03 2.956,-4.165 4.494,-6.186 5.77,-7.58 11.051,-13.869 11.051,-13.869 0.263,-0.264 0.263,-0.692 0,-0.955 -0.264,-0.264 -0.692,-0.264 -0.956,0 0,0 -6.288,5.281 -13.869,11.05 -2.021,1.538 -4.155,2.907 -6.186,4.495 -1.012,0.791 -1.997,1.582 -2.901,2.438 -0.62,0.589 -1.196,1.206 -1.72,1.84 -0.762,0.924 -1.397,1.844 -2.006,2.762 -0.703,1.062 -1.246,2.015 -1.791,2.977 -2.187,3.859 -3.312,6.223 -3.312,6.223 -0.264,0.264 -0.264,0.692 0,0.956 0.264,0.263 0.692,0.263 0.955,0 z"
               style="fill:#70c284;fill-opacity:0.99"
               id="path93" /><path
               d="m 352.293,139.765 c 0,0 1.484,-2.156 3.734,-5.98 0.56,-0.952 1.113,-1.9 1.681,-3.04 0.491,-0.985 0.97,-1.996 1.389,-3.118 0.288,-0.77 0.534,-1.577 0.734,-2.409 0.29,-1.211 0.482,-2.459 0.661,-3.732 0.36,-2.552 0.478,-5.085 0.8,-7.604 1.206,-9.45 2.635,-17.537 2.635,-17.537 0.096,-0.36 -0.118,-0.73 -0.478,-0.827 -0.36,-0.096 -0.731,0.118 -0.827,0.478 0,0 -2.806,7.718 -6.486,16.504 -0.981,2.343 -2.145,4.595 -3.11,6.985 -0.481,1.193 -0.939,2.369 -1.293,3.563 -0.243,0.82 -0.433,1.642 -0.569,2.454 -0.199,1.18 -0.289,2.295 -0.357,3.394 -0.078,1.271 -0.072,2.369 -0.063,3.474 0.036,4.436 0.244,7.046 0.244,7.046 -0.097,0.36 0.117,0.73 0.477,0.827 0.36,0.096 0.731,-0.118 0.828,-0.478 z"
               style="fill:#70c284;fill-opacity:0.99"
               id="path95" /><path
               d="m 276.48,139.419 c 0,0 0.207,-2.61 0.243,-7.046 0.009,-1.105 0.015,-2.202 -0.063,-3.473 -0.068,-1.1 -0.158,-2.214 -0.356,-3.395 -0.136,-0.811 -0.327,-1.633 -0.57,-2.454 -0.354,-1.193 -0.812,-2.37 -1.293,-3.562 -0.964,-2.39 -2.128,-4.643 -3.11,-6.985 -3.68,-8.787 -6.486,-16.505 -6.486,-16.505 -0.096,-0.36 -0.467,-0.574 -0.827,-0.478 -0.36,0.097 -0.574,0.468 -0.477,0.828 0,0 1.429,8.086 2.635,17.536 0.321,2.519 0.439,5.052 0.799,7.604 0.18,1.273 0.371,2.521 0.662,3.732 0.199,0.832 0.446,1.639 0.733,2.41 0.419,1.121 0.898,2.132 1.389,3.118 0.568,1.139 1.122,2.087 1.682,3.039 2.249,3.824 3.734,5.98 3.734,5.98 0.096,0.361 0.467,0.575 0.827,0.478 0.36,-0.096 0.574,-0.467 0.478,-0.827 z"
               style="fill:#70c284;fill-opacity:0.99"
               id="path97" /><path
               d="m 210.651,177.025 c 0,0 -1.125,-2.364 -3.312,-6.223 -0.545,-0.962 -1.089,-1.915 -1.792,-2.977 -0.608,-0.918 -1.244,-1.838 -2.006,-2.762 -0.523,-0.634 -1.099,-1.251 -1.72,-1.84 -0.903,-0.856 -1.888,-1.646 -2.901,-2.438 -2.03,-1.588 -4.165,-2.957 -6.185,-4.495 -7.581,-5.769 -13.87,-11.05 -13.87,-11.05 -0.263,-0.264 -0.691,-0.264 -0.955,0 -0.264,0.263 -0.264,0.691 0,0.955 0,0 5.281,6.289 11.051,13.869 1.538,2.021 2.906,4.156 4.494,6.186 0.792,1.013 1.582,1.998 2.439,2.901 0.589,0.621 1.205,1.197 1.84,1.72 0.923,0.762 1.843,1.398 2.762,2.006 1.061,0.703 2.014,1.247 2.976,1.792 3.859,2.186 6.224,3.312 6.224,3.312 0.263,0.263 0.691,0.263 0.955,0 0.263,-0.264 0.263,-0.692 0,-0.956 z"
               style="fill:#70c284;fill-opacity:0.99"
               id="path99" /></g><g
             id="g117"><path
               d="m 499.808,242.283 c 40.27,0 47.56,38.778 79.413,38.778 -31.853,0 -39.143,38.777 -79.413,38.777"
               style="fill:none;stroke:#70c284;stroke-width:4.17px"
               id="path103" /><path
               d="m 455.491,154.444 c 34.874,-20.135 60.577,9.803 88.162,-6.124 -27.585,15.927 -14.51,53.154 -49.385,73.289"
               style="fill:none;stroke:#70c284;stroke-width:4.17px"
               id="path105" /><path
               d="m 373.192,100.532 c 20.134,-34.874 57.362,-21.799 73.288,-49.384 -15.926,27.585 14.011,53.287 -6.124,88.162"
               style="fill:none;stroke:#70c284;stroke-width:4.17px"
               id="path107" /><path
               d="m 274.962,94.992 c 0,-40.269 38.778,-47.56 38.778,-79.412 0,31.852 38.777,39.143 38.777,79.412"
               style="fill:none;stroke:#70c284;stroke-width:4.17px"
               id="path109" /><path
               d="m 187.123,139.31 c -20.134,-34.875 9.803,-60.577 -6.124,-88.162 15.927,27.585 53.154,14.51 73.289,49.384"
               style="fill:none;stroke:#70c284;stroke-width:4.17px"
               id="path111" /><path
               d="M 133.211,221.609 C 98.337,201.474 111.412,164.247 83.827,148.32 c 27.585,15.927 53.287,-14.011 88.162,6.124"
               style="fill:none;stroke:#70c284;stroke-width:4.17px"
               id="path113" /><path
               d="m 127.672,319.838 c -40.27,0 -47.56,-38.777 -79.413,-38.777 31.853,0 39.143,-38.778 79.413,-38.778"
               style="fill:none;stroke:#70c284;stroke-width:4.17px"
               id="path115" /></g><g
             id="g131"><path
               d="m 541.9,219.657 c 0,0 -10.718,-0.573 -14.942,0.559 -1.774,0.475 -2.828,2.301 -2.353,4.075 0.475,1.774 2.301,2.828 4.075,2.353 4.224,-1.132 13.22,-6.987 13.22,-6.987 z"
               style="fill:none;stroke:#70c284;stroke-width:4.17px"
               id="path119" /><path
               d="m 480.63,113.804 c 0,0 -9.568,4.863 -12.66,7.955 -1.299,1.298 -1.299,3.407 0,4.705 1.298,1.299 3.407,1.299 4.705,0 3.093,-3.092 7.955,-12.66 7.955,-12.66 z"
               style="fill:none;stroke:#70c284;stroke-width:4.17px"
               id="path121" /><path
               d="m 374.643,52.767 c 0,0 -5.855,8.995 -6.987,13.219 -0.475,1.774 0.579,3.6 2.353,4.075 1.774,0.476 3.6,-0.578 4.075,-2.352 1.132,-4.224 0.559,-14.942 0.559,-14.942 z"
               style="fill:none;stroke:#70c284;stroke-width:4.17px"
               id="path123" /><path
               d="m 252.336,52.901 c 0,0 -0.572,10.718 0.559,14.942 0.476,1.774 2.302,2.828 4.076,2.353 1.773,-0.476 2.828,-2.302 2.352,-4.076 -1.132,-4.224 -6.987,-13.219 -6.987,-13.219 z"
               style="fill:none;stroke:#70c284;stroke-width:4.17px"
               id="path125" /><path
               d="m 146.483,114.17 c 0,0 4.863,9.568 7.955,12.661 1.299,1.298 3.407,1.298 4.706,0 1.298,-1.299 1.298,-3.407 0,-4.706 -3.093,-3.092 -12.661,-7.955 -12.661,-7.955 z"
               style="fill:none;stroke:#70c284;stroke-width:4.17px"
               id="path127" /><path
               d="m 85.446,220.158 c 0,0 8.995,5.855 13.22,6.987 1.773,0.475 3.599,-0.579 4.075,-2.353 0.475,-1.774 -0.579,-3.6 -2.353,-4.075 -4.224,-1.132 -14.942,-0.559 -14.942,-0.559 z"
               style="fill:none;stroke:#70c284;stroke-width:4.17px"
               id="path129" /></g><g
             id="g143"><path
               d="m 476.31,187.201 c -8.114,-0.672 -12.752,-8.706 -10.243,-15.511 2.51,-6.806 12.167,-12.382 24.145,-13.94 8.866,-1.37 20.284,1.679 28.592,4.917 -1.35,8.813 -4.418,20.226 -10.038,27.22 -7.338,9.593 -16.996,15.169 -24.144,13.94 -7.148,-1.23 -11.787,-9.264 -8.312,-16.626 z"
               style="fill:none;stroke:#70c284;stroke-width:4.17px"
               id="path133" /><path
               d="m 407.6,118.49 c -7.363,3.475 -15.397,-1.163 -16.626,-8.311 -1.23,-7.148 4.346,-16.806 13.939,-24.144 6.994,-5.62 18.407,-8.689 27.221,-10.039 3.238,8.308 6.286,19.726 4.917,28.593 -1.559,11.977 -7.135,21.635 -13.94,24.144 -6.805,2.51 -14.839,-2.129 -15.511,-10.243 z"
               style="fill:none;stroke:#70c284;stroke-width:4.17px"
               id="path135" /><path
               d="m 313.74,93.34 c -4.639,6.691 -13.916,6.691 -18.554,1.116 -4.639,-5.576 -4.639,-16.728 0,-27.88 3.247,-8.363 11.596,-16.727 18.554,-22.303 6.958,5.576 15.307,13.94 18.554,22.303 4.639,11.152 4.639,22.304 0,27.88 -4.638,5.575 -13.915,5.575 -18.554,-1.116 z"
               style="fill:none;stroke:#70c284;stroke-width:4.17px"
               id="path137" /><path
               d="m 219.88,118.49 c -0.672,8.114 -8.706,12.753 -15.511,10.243 -6.805,-2.509 -12.381,-12.167 -13.94,-24.144 -1.37,-8.867 1.679,-20.285 4.917,-28.593 8.814,1.35 20.226,4.419 27.22,10.039 9.593,7.338 15.169,16.996 13.94,24.144 -1.229,7.148 -9.264,11.786 -16.626,8.311 z"
               style="fill:none;stroke:#70c284;stroke-width:4.17px"
               id="path139" /><path
               d="m 151.169,187.2 c 3.476,7.363 -1.163,15.397 -8.311,16.627 -7.148,1.229 -16.806,-4.347 -24.144,-13.94 -5.62,-6.994 -8.688,-18.407 -10.038,-27.22 8.308,-3.238 19.726,-6.287 28.592,-4.917 11.977,1.559 21.635,7.134 24.144,13.939 2.51,6.806 -2.129,14.84 -10.243,15.511 z"
               style="fill:none;stroke:#70c284;stroke-width:4.17px"
               id="path141" /></g></g><g
           id="bar"><rect
             x="-53.882999"
             y="191.226"
             width="731.76501"
             height="213.991"
             style="fill:#af8a6a"
             id="rect146" /><clipPath
             id="_clip3"><rect
               x="-53.882999"
               y="191.226"
               width="731.76501"
               height="213.991"
               id="rect148" /></clipPath><g
             clip-path="url(#_clip3)"
             id="g171"><g
               id="g169"><path
                 d="m -35.077,208.324 c 0,0 213.309,-10.661 276.744,-6.504 55.997,3.67 178.465,12.766 227.825,15.642 56.467,3.29 199.759,0.013 238.055,2.965 38.295,2.953 -1.781,3.15 -1.781,3.15 0,0 -239.455,0.367 -303.044,-5.288 -57.731,-5.134 -202.968,-14.358 -232.65,-13.575 -8.738,0.231 -192.458,5.579 -204.704,6.366 -12.246,0.787 -0.445,-2.756 -0.445,-2.756 z"
                 style="fill:#aa825f"
                 id="path151" /><path
                 d="m 128.201,198.272 c -8.971,-0.411 -176.838,-0.402 -174.126,-0.888 3.934,-0.704 2.269,3.546 2.269,3.546 l 22.439,1.886 c 0,0 44.893,-2.879 63.165,-2.096 20.18,0.864 78.324,-0.491 86.253,-2.448 z"
                 style="fill:#aa825f"
                 id="path153" /><path
                 d="m -61.234,193.095 c 0,0 212.965,-1.889 276.42,2.047 63.455,3.937 190.031,-2.244 249.034,-2.637 59.002,-0.394 158.192,0 196.488,2.952 38.296,2.953 -1.781,3.15 -1.781,3.15 0,0 -211.295,-3.504 -269.184,0.236 -57.889,3.74 -219.698,-3.077 -249.395,-3.212 -8.089,-0.036 -188.891,-0.567 -201.137,0.22 -12.246,0.787 -0.445,-2.756 -0.445,-2.756 z"
                 style="fill:#aa825f"
                 id="path155" /><path
                 d="m 135.895,184.36 c 75.681,8.516 216.285,9.077 293.047,-2.004 -72.853,15.768 -213.709,14.739 -293.047,2.004 z"
                 style="fill:#aa825f"
                 id="path157" /><path
                 d="m 355.558,204.432 c 0,0 81.483,-4.019 167.784,-3.728 86.733,0.292 101.707,-0.942 132.621,-0.802 31.144,0.141 0.649,3.474 0.649,3.474 0,0 -247.733,-2.405 -262.973,2.405 -15.24,4.81 244.166,8.551 272.376,8.016 28.211,-0.534 0.973,3.742 0.973,3.742 0,0 -133.585,-2.956 -178.666,-3.207 -47.99,-0.267 -104.877,-1.883 -132.764,-9.9 z"
                 style="fill:#aa825f"
                 id="path159" /><path
                 d="m 450.512,207.636 c 0,0 201.582,-2.014 226.236,-0.424 24.654,1.589 -3.77,2.543 -3.77,2.543 0,0 -203.033,0.106 -222.466,-2.119 z"
                 style="fill:#aa825f"
                 id="path161" /><path
                 d="m 381.577,223.728 c 0.247,-5.261 -171.522,-18.146 -223.584,-14.049 -92.757,7.299 -193.609,2.9 -213.89,12.264 -20.281,9.364 168.524,19.996 202.695,21.798 34.17,1.802 234.49,-13.836 234.779,-20.013 z m -42.185,1.29 c -2.558,-2.902 -105.231,-14.624 -180.235,-10.483 -66.139,3.653 -160.672,3.415 -175.1,10.076 -14.428,6.661 144.41,16.999 168.719,18.281 24.308,1.282 188.187,-13.841 186.616,-17.874 z"
                 style="fill:#aa825f"
                 id="path163" /><path
                 d="m 277.315,256.589 c 0,0 88.487,-22.654 165.587,-27.293 78.167,-4.703 197.926,2.993 238.912,-4.275 40.986,-7.269 3.113,8.551 3.113,8.551 -1.238,-1.166 -228.844,-3.82 -294.992,8.081 -31.015,5.579 -100.169,20.066 -100.169,20.066 z"
                 style="fill:#aa825f"
                 id="path165" /><path
                 d="m 29.306,227.304 c 1.488,-2.959 72.743,-2.594 123.75,-5.218 52.093,-2.68 101.718,1.384 115.928,3.177 14.21,1.792 -134.073,8.688 -144.13,7.028 -10.058,-1.661 -96.89,-2.32 -95.548,-4.987 z"
                 style="fill:#aa825f"
                 id="path167" /></g></g><rect
             x="-40.368"
             y="238.979"
             width="685.32703"
             height="159.33501"
             style="fill:#d5cf90"
             id="rect173" /><clipPath
             id="_clip4"><rect
               x="-40.368"
               y="238.979"
               width="685.32703"
               height="159.33501"
               id="rect175" /></clipPath><g
             clip-path="url(#_clip4)"
             id="g190"><g
               id="g186"><g
                 id="g184"><rect
                   x="-55.230999"
                   y="230.214"
                   width="307.16199"
                   height="37.528"
                   style="fill:#ccc57f"
                   id="rect178" /><rect
                   x="251.931"
                   y="230.214"
                   width="276.694"
                   height="37.528"
                   style="fill:#d5cf90"
                   id="rect180" /><rect
                   x="528.625"
                   y="230.214"
                   width="276.694"
                   height="37.528"
                   style="fill:#c2bc7f"
                   id="rect182" /></g></g><rect
               x="-37.425999"
               y="238.68201"
               width="693.00098"
               height="21.961"
               style="fill-opacity:0.1"
               id="rect188" /></g><rect
             x="-28.105"
             y="228.23399"
             width="683.68903"
             height="20.858999"
             style="fill:#b8977a"
             id="rect192" /><clipPath
             id="_clip5"><rect
               x="-28.105"
               y="228.23399"
               width="683.68903"
               height="20.858999"
               id="rect194" /></clipPath><g
             clip-path="url(#_clip5)"
             id="g213"><g
               id="g211"><path
                 d="m -45.112,239.989 c 0,0 213.309,-5.701 276.744,-3.478 55.997,1.963 178.465,6.827 227.826,8.365 56.466,1.76 199.758,0.007 238.054,1.586 38.296,1.579 -1.781,1.684 -1.781,1.684 0,0 -239.455,0.196 -303.044,-2.828 -57.731,-2.745 -202.968,-7.678 -232.65,-7.259 -8.738,0.123 -192.458,2.983 -204.704,3.404 -12.246,0.421 -0.445,-1.474 -0.445,-1.474 z"
                 style="fill:#b18d6d"
                 id="path197" /><path
                 d="m 118.166,234.614 c -8.971,-0.22 -176.838,-0.215 -174.126,-0.475 3.934,-0.377 2.269,1.896 2.269,1.896 l 22.439,1.009 c 0,0 44.893,-1.54 63.165,-1.121 20.18,0.462 78.324,-0.263 86.253,-1.309 z"
                 style="fill:#b18d6d"
                 id="path199" /><path
                 d="m -71.269,231.845 c 0,0 212.965,-1.01 276.42,1.095 63.455,2.105 190.032,-1.2 249.034,-1.41 59.002,-0.211 158.192,0 196.488,1.579 38.296,1.579 -1.781,1.684 -1.781,1.684 0,0 -211.295,-1.874 -269.184,0.126 -57.889,2 -219.698,-1.645 -249.395,-1.717 -8.089,-0.02 -188.891,-0.304 -201.137,0.117 -12.245,0.421 -0.445,-1.474 -0.445,-1.474 z"
                 style="fill:#b18d6d"
                 id="path201" /><path
                 d="m 125.86,227.174 c 75.681,4.554 216.285,4.854 293.047,-1.072 -72.853,8.433 -213.709,7.883 -293.047,1.072 z"
                 style="fill:#b18d6d"
                 id="path203" /><path
                 d="m 345.524,237.908 c 0,0 81.482,-2.149 167.783,-1.994 86.733,0.156 101.707,-0.503 132.621,-0.428 31.144,0.075 0.649,1.857 0.649,1.857 0,0 -247.733,-1.286 -262.973,1.286 -15.24,2.573 244.166,4.573 272.376,4.287 28.211,-0.285 0.973,2.001 0.973,2.001 0,0 -133.584,-1.581 -178.666,-1.715 -47.99,-0.143 -104.877,-1.007 -132.763,-5.294 z"
                 style="fill:#b18d6d"
                 id="path205" /><path
                 d="m 440.477,239.621 c 0,0 201.582,-1.077 226.236,-0.227 24.654,0.851 -3.77,1.361 -3.77,1.361 0,0 -203.033,0.056 -222.466,-1.134 z"
                 style="fill:#b18d6d"
                 id="path207" /><path
                 d="m 371.543,248.227 c 0.246,-2.814 -171.523,-9.704 -223.585,-7.513 -92.757,3.903 -193.609,1.551 -213.89,6.558 -20.281,5.008 168.524,10.693 202.695,11.657 34.17,0.964 234.49,-7.399 234.78,-10.702 z m -42.186,0.69 c -2.558,-1.552 -105.231,-7.821 -180.235,-5.606 -66.139,1.953 -160.672,1.826 -175.1,5.388 -14.428,3.562 144.41,9.091 168.719,9.776 24.308,0.686 188.187,-7.401 186.616,-9.558 z"
                 style="fill:#b18d6d"
                 id="path209" /></g></g><g
             id="getränke"><g
               id="new_cup"><path
                 d="m 476.429,139.112 c 0,-2.705 11.785,-4.901 26.301,-4.901 14.516,0 26.301,2.196 26.301,4.901 v 0.14 c 0,13.699 -2.713,28.826 -6.405,35.577 -3.692,8.342 -4.376,20.922 -4.376,24.204 -5.415,3.521 -25.435,4.101 -31.04,0 0,-3.282 -1.605,-15.513 -4.376,-24.204 -3.51,-11.009 -8.199,-14.492 -16.831,-14.492 -8.632,0 -9.091,-10.782 -9.091,-12.159 0,-1.376 0.431,-6.872 10.41,-6.452 8.414,0.354 9.074,-1.471 9.107,-2.201 v -0.153 c -0.002,-0.056 -0.005,-0.098 0,-0.12 z m -8.84,6.48 c 5.954,-0.145 6.475,1.371 6.495,5.847 0.019,4.314 -1.9,5.123 -6.246,5.073 -4.078,-0.047 -5.255,-1.693 -6.276,-4.908 -1.507,-4.746 0.85,-5.886 6.027,-6.012 z"
                 style="fill:#5285eb"
                 id="path215" /><clipPath
                 id="_clip6"><path
                   d="m 476.429,139.112 c 0,-2.705 11.785,-4.901 26.301,-4.901 14.516,0 26.301,2.196 26.301,4.901 v 0.14 c 0,13.699 -2.713,28.826 -6.405,35.577 -3.692,8.342 -4.376,20.922 -4.376,24.204 -5.415,3.521 -25.435,4.101 -31.04,0 0,-3.282 -1.605,-15.513 -4.376,-24.204 -3.51,-11.009 -8.199,-14.492 -16.831,-14.492 -8.632,0 -9.091,-10.782 -9.091,-12.159 0,-1.376 0.431,-6.872 10.41,-6.452 8.414,0.354 9.074,-1.471 9.107,-2.201 v -0.153 c -0.002,-0.056 -0.005,-0.098 0,-0.12 z m -8.84,6.48 c 5.954,-0.145 6.475,1.371 6.495,5.847 0.019,4.314 -1.9,5.123 -6.246,5.073 -4.078,-0.047 -5.255,-1.693 -6.276,-4.908 -1.507,-4.746 0.85,-5.886 6.027,-6.012 z"
                   id="path217" /></clipPath><g
                 clip-path="url(#_clip6)"
                 id="g228"><path
                   d="m 489.172,132.606 c 0,0 -3.928,16.565 4.036,40.786 3.102,9.431 1.912,28.348 2.443,30.26 0.531,1.912 -16.462,2.506 -16.462,2.506 L 461.982,171.64 c 0,0 -13.17,-26.022 -12.32,-27.509 C 450.511,142.644 464,131.173 464,131.173 Z"
                   style="fill:#386fdc"
                   id="path220" /><path
                   d="m 521.035,131.411 c 0,0 3.929,16.565 -4.036,40.786 -3.101,9.431 -1.912,28.348 -2.443,30.26 -0.531,1.912 16.463,2.507 16.463,2.507 l 17.206,-34.519 c 0,0 13.171,-26.022 12.321,-27.509 -0.85,-1.487 -14.339,-12.958 -14.339,-12.958 z"
                   style="fill:#386fdc"
                   id="path222" /><path
                   d="m 517.972,130.748 c 0,0 -2.124,29.009 -4.779,40.095 -2.527,10.549 -3.452,27.748 -3.452,33.456 0,5.709 -2.656,0 -2.656,0 0,0 -1.031,-22.659 1.594,-34.253 2.788,-12.314 1.062,-38.831 1.593,-39.431 0.531,-0.6 7.7,0.133 7.7,0.133 z"
                   style="fill:#99bbff"
                   id="path224" /><path
                   d="m 478.837,167.471 c 3.458,16.068 -3.434,8.736 -3.434,8.736 l -20.801,-1.308 -9.42,-26.166 15.931,-17.007 16.23,8.158 c 0,0 -2.371,9.627 1.494,27.587 z"
                   style="fill:#3162c4"
                   id="path226" /></g><path
                 d="m 476.429,139.112 c 0,-2.705 11.785,-4.901 26.301,-4.901 14.516,0 26.301,2.196 26.301,4.901 v 0.14 c 0,13.699 -2.713,28.826 -6.405,35.577 -3.692,8.342 -4.376,20.922 -4.376,24.204 -5.415,3.521 -25.435,4.101 -31.04,0 0,-3.282 -1.605,-15.513 -4.376,-24.204 -3.51,-11.009 -8.199,-14.492 -16.831,-14.492 -8.632,0 -9.091,-10.782 -9.091,-12.159 0,-1.376 0.431,-6.872 10.41,-6.452 8.414,0.354 9.074,-1.471 9.107,-2.201 v -0.153 c -0.002,-0.056 -0.005,-0.098 0,-0.12 z m -8.84,6.48 c 5.954,-0.145 6.475,1.371 6.495,5.847 0.019,4.314 -1.9,5.123 -6.246,5.073 -4.078,-0.047 -5.255,-1.693 -6.276,-4.908 -1.507,-4.746 0.85,-5.886 6.027,-6.012 z"
                 style="fill:none;stroke:#ccddff;stroke-width:1.91px;stroke-linejoin:miter"
                 id="path230" /><ellipse
                 cx="502.73001"
                 cy="139.112"
                 rx="25.259001"
                 ry="4.448"
                 style="fill:#386fdc"
                 id="ellipse232" /><clipPath
                 id="_clip7"><ellipse
                   cx="502.73001"
                   cy="139.112"
                   rx="25.259001"
                   ry="4.448"
                   id="ellipse234" /></clipPath><g
                 clip-path="url(#_clip7)"
                 id="g245"><path
                   d="m 521.797,129.318 c 0,0 -1.675,29.038 -4.159,40.164 -2.363,10.587 -3.022,27.798 -2.933,33.506 0.088,5.708 -2.655,0.041 -2.655,0.041 0,0 -1.383,-22.641 1.063,-34.274 2.597,-12.355 0.461,-38.843 0.982,-39.451 0.522,-0.608 7.702,0.014 7.702,0.014 z"
                   style="fill:#5285eb"
                   id="path237" /><ellipse
                   cx="502.96701"
                   cy="141.533"
                   rx="25.259001"
                   ry="5.1199999"
                   style="fill:#fdfcfa"
                   id="ellipse239" /><path
                   d="m 499.616,139.159 c 0.589,-0.386 2.031,-0.659 3.715,-0.659 2.045,0 3.733,0.402 3.97,0.921 1.658,0.127 2.869,0.529 2.869,1.003 0,0.512 -1.408,0.939 -3.266,1.029 -0.31,0.497 -1.96,0.877 -3.946,0.877 -2.207,0 -3.999,-0.469 -3.999,-1.046 0,-0.013 10e-4,-0.026 0.003,-0.04 -2.086,-0.035 -3.74,-0.489 -3.74,-1.044 0,-0.577 1.792,-1.046 3.999,-1.046 0.133,0 0.265,0.002 0.395,0.005 z"
                   style="fill:#ad8d5b"
                   id="path241" /><path
                   d="m 498.78,141.465 c 0.121,0.269 0.509,0.543 1.127,0.732 0.747,0.229 1.836,0.389 3.051,0.408 1.155,0.026 2.202,-0.081 2.954,-0.264 0.533,-0.13 0.927,-0.322 1.155,-0.522 0.989,-0.031 1.85,-0.163 2.445,-0.351 0.378,-0.12 0.658,-0.275 0.832,-0.431 0.209,-0.186 0.291,-0.403 0.297,-0.613 0.011,-0.346 -0.297,-0.767 -0.981,-1.055 -0.494,-0.208 -1.213,-0.379 -2.059,-0.487 -0.24,-0.236 -0.649,-0.47 -1.208,-0.643 -0.766,-0.238 -1.852,-0.404 -3.062,-0.444 -0.895,-0.03 -1.726,0.021 -2.415,0.122 -0.659,0.097 -1.195,0.26 -1.565,0.441 l 0.002,-0.001 -0.132,0.014 c -1.261,0.132 -2.361,0.385 -3.119,0.684 -0.845,0.334 -1.278,0.777 -1.25,1.145 0.01,0.154 0.058,0.309 0.186,0.446 0.18,0.193 0.532,0.379 1.033,0.512 0.672,0.178 1.628,0.305 2.709,0.307 z m 10.816,-1.033 c -0.027,0.031 -0.058,0.063 -0.094,0.082 -0.227,0.119 -0.537,0.225 -0.911,0.315 -0.484,0.116 -1.066,0.206 -1.705,0.255 -0.121,0.005 -0.232,0.07 -0.296,0.174 -0.131,0.222 -0.597,0.381 -1.234,0.527 -0.66,0.151 -1.492,0.251 -2.398,0.271 -0.958,0.015 -1.837,-0.056 -2.52,-0.197 -0.461,-0.096 -0.829,-0.219 -1.061,-0.366 -0.112,-0.07 -0.198,-0.128 -0.198,-0.209 l 0.001,-0.009 c 0.008,-0.062 -0.01,-0.125 -0.051,-0.173 -0.041,-0.048 -0.1,-0.076 -0.163,-0.077 -0.731,-0.028 -1.408,-0.1 -1.972,-0.223 -0.536,-0.116 -0.963,-0.274 -1.235,-0.447 -0.056,-0.035 -0.109,-0.094 -0.143,-0.135 l 0.02,-0.014 c 0.048,-0.04 0.114,-0.069 0.19,-0.102 0.307,-0.134 0.772,-0.21 1.338,-0.248 0.604,-0.041 1.302,-0.002 2.057,0.081 l 0.374,0.055 c 0.169,0.004 0.336,-0.043 0.478,-0.136 0.226,-0.159 0.621,-0.292 1.123,-0.401 0.604,-0.131 1.339,-0.223 2.135,-0.25 0.725,-0.024 1.403,0.002 1.982,0.076 0.521,0.066 0.957,0.16 1.259,0.289 0.096,0.042 0.225,0.12 0.225,0.12 0,0 -0.009,-0.022 -0.014,-0.032 0.086,0.189 0.268,0.315 0.474,0.331 0.438,0.02 0.844,0.059 1.202,0.118 0.48,0.078 0.869,0.178 1.118,0.314 z"
                   style="fill:#e4d9c9"
                   id="path243" /></g><path
                 d="m 502.73,134.664 c 13.941,0 25.259,1.993 25.259,4.448 0,2.455 -11.318,4.448 -25.259,4.448 -13.941,0 -25.259,-1.993 -25.259,-4.448 0,-2.455 11.318,-4.448 25.259,-4.448 z m 23.524,4.399 c -0.191,0.137 -0.444,0.302 -0.692,0.418 -1.95,0.92 -5.407,1.785 -9.814,2.42 -1.228,0.177 -2.523,0.345 -3.882,0.472 -2.828,0.264 -5.911,0.392 -9.136,0.44 -3.726,-0.051 -7.264,-0.205 -10.437,-0.543 -0.893,-0.096 -1.753,-0.218 -2.584,-0.343 -4.402,-0.662 -7.845,-1.566 -9.788,-2.499 -0.221,-0.106 -0.414,-0.22 -0.59,-0.321 l -0.149,-0.09 c 0.212,-0.11 0.476,-0.225 0.692,-0.329 1.949,-0.934 5.406,-1.859 9.828,-2.453 3.788,-0.51 8.255,-0.741 13.028,-0.797 4.772,0.064 9.239,0.3 13.025,0.819 4.416,0.606 7.86,1.555 9.808,2.485 0.215,0.103 0.48,0.215 0.691,0.321 z m 0.236,0.134 c 0.062,0.042 0.106,0.082 0.123,0.118 0.016,0.036 0.006,0.069 -0.04,0.096 -0.077,0.047 -0.084,-0.1 -0.083,-0.214 z m -47.558,-0.034 c 10e-4,0.054 -0.001,0.121 -0.012,0.169 -0.011,0.049 -0.032,0.078 -0.071,0.055 -0.096,-0.056 -0.045,-0.134 0.083,-0.224 z"
                 style="fill:#3162c4"
                 id="path247" /><path
                 d="m 481.847,140.224 c -0.344,-0.11 -0.644,-0.218 -0.91,-0.32 -0.609,-0.234 -1.009,-0.446 -1.228,-0.649 -0.125,-0.116 -0.176,-0.218 -0.128,-0.323 0.04,-0.088 0.138,-0.164 0.27,-0.247 0.23,-0.145 0.567,-0.278 0.992,-0.414 0.494,-0.158 1.105,-0.306 1.809,-0.459 0.561,-0.121 1.18,-0.246 1.846,-0.369 1.278,-0.236 2.727,-0.47 4.269,-0.681 1.38,-0.188 2.832,-0.364 4.3,-0.519 4.879,-0.518 9.92,-0.82 12.981,-0.713 -3.061,-0.209 -8.12,-0.09 -13.02,0.281 -1.478,0.112 -2.94,0.247 -4.329,0.404 -1.559,0.177 -3.025,0.375 -4.314,0.605 -0.573,0.101 -1.112,0.209 -1.607,0.325 -0.595,0.139 -1.129,0.288 -1.589,0.442 -0.621,0.207 -1.111,0.422 -1.441,0.637 -0.289,0.187 -0.466,0.38 -0.529,0.564 -0.083,0.241 -0.023,0.493 0.282,0.718 0.259,0.19 0.711,0.378 1.393,0.537 0.279,0.065 0.594,0.124 0.953,0.181 z"
                 style="fill:#99bbff"
                 id="path249" /><path
                 d="m 523.64,140.276 c 0.224,-0.022 0.43,-0.043 0.624,-0.071 0.637,-0.092 1.109,-0.213 1.448,-0.343 0.269,-0.103 0.452,-0.225 0.57,-0.342 0.109,-0.107 0.161,-0.224 0.185,-0.337 0.037,-0.18 -0.022,-0.367 -0.178,-0.554 -0.153,-0.184 -0.429,-0.373 -0.809,-0.556 -0.22,-0.106 -0.477,-0.211 -0.767,-0.311 -0.346,-0.119 -0.74,-0.232 -1.17,-0.34 -0.862,-0.216 -1.873,-0.413 -2.955,-0.593 -1.474,-0.245 -3.081,-0.455 -4.624,-0.627 -3.16,-0.354 -6.047,-0.546 -6.967,-0.543 0.918,0.042 3.785,0.387 6.921,0.884 1.526,0.242 3.114,0.521 4.572,0.818 1.06,0.215 2.049,0.443 2.895,0.67 0.413,0.111 0.791,0.223 1.127,0.331 0.271,0.088 0.514,0.172 0.723,0.259 0.251,0.103 0.451,0.203 0.589,0.31 0.049,0.039 0.093,0.073 0.12,0.113 0.016,0.023 0.036,0.041 0.034,0.065 -0.005,0.047 -0.033,0.093 -0.082,0.143 -0.081,0.083 -0.196,0.169 -0.351,0.258 -0.303,0.174 -0.732,0.356 -1.314,0.561 -0.184,0.065 -0.378,0.135 -0.591,0.205 z"
                 style="fill:#99bbff"
                 id="path251" /></g><g
               id="new_flask"><path
                 d="m 443.186,23.772 c -6.133,0 -7.731,0.842 -7.731,0.842 -1.817,0.709 -1.241,1.462 -1.241,1.462 -1.506,1.373 -0.265,2.791 -0.265,2.791 -1.241,1.063 0.221,2.436 0.221,2.436 -3.056,2.392 -0.133,4.74 -0.133,4.74 0.147,-0.043 0.294,-0.085 0.443,-0.125 -0.022,17.598 -9.863,46.143 -9.863,46.143 -5.711,17.044 -4.914,33.519 -4.914,33.519 0,0 0.148,66.787 0.148,76.92 0,10.133 2.671,12.878 2.671,12.878 2.065,2.066 5.23,1.829 20.664,1.829 15.435,0 18.6,0.237 20.665,-1.829 0,0 2.671,-2.745 2.671,-12.878 0,-10.133 0.148,-76.92 0.148,-76.92 0,0 0.796,-16.475 -4.914,-33.519 0,0 -9.841,-28.545 -9.863,-46.143 0.149,0.04 0.296,0.082 0.443,0.125 0,0 2.923,-2.348 -0.133,-4.74 0,0 1.462,-1.373 0.221,-2.436 0,0 1.241,-1.418 -0.265,-2.791 0,0 0.575,-0.753 -1.241,-1.462 0,0 -1.598,-0.842 -7.732,-0.842 z m 0,10.848 c 0,0 0,0 0,0 z"
                 style="fill:none;stroke:#f5f5f5;stroke-width:5.69px;stroke-linejoin:miter"
                 id="path254" /><path
                 d="m 442.782,34.831 c 5.136,0 8.707,1.24 8.707,1.24 0,17.593 9.863,46.201 9.863,46.201 5.71,17.044 4.914,33.518 4.914,33.518 0,0 -0.148,66.787 -0.148,76.92 0,10.133 -2.672,12.879 -2.672,12.879 -2.065,2.065 -5.23,1.829 -20.664,1.829 -15.434,0 -18.599,0.236 -20.664,-1.829 0,0 -2.672,-2.746 -2.672,-12.879 0,-10.133 -0.148,-76.92 -0.148,-76.92 0,0 -0.796,-16.474 4.914,-33.518 0,0 9.863,-28.608 9.863,-46.201 0,0 3.571,-1.24 8.707,-1.24 5.136,0 -5.136,0 0,0 z"
                 style="fill:#777777"
                 id="path256" /><clipPath
                 id="_clip8"><path
                   d="m 442.782,34.831 c 5.136,0 8.707,1.24 8.707,1.24 0,17.593 9.863,46.201 9.863,46.201 5.71,17.044 4.914,33.518 4.914,33.518 0,0 -0.148,66.787 -0.148,76.92 0,10.133 -2.672,12.879 -2.672,12.879 -2.065,2.065 -5.23,1.829 -20.664,1.829 -15.434,0 -18.599,0.236 -20.664,-1.829 0,0 -2.672,-2.746 -2.672,-12.879 0,-10.133 -0.148,-76.92 -0.148,-76.92 0,0 -0.796,-16.474 4.914,-33.518 0,0 9.863,-28.608 9.863,-46.201 0,0 3.571,-1.24 8.707,-1.24 5.136,0 -5.136,0 0,0 z"
                   id="path258" /></clipPath><g
                 clip-path="url(#_clip8)"
                 id="g265"><path
                   d="m 442.782,203.659 h 12.776 c 4.485,0 5.337,-5.569 5.337,-10.054 v -74.401 c 0,-14.534 0.338,-23.955 -7.04,-50.945 -3.744,-13.695 -3.71,-22.166 -3.71,-33.428 0,-11.263 7.884,-2.644 7.884,-2.644 l 25.671,105.666 -9.275,71.714 h -31.643"
                   style="fill:#656565"
                   id="path261" /><path
                   d="m 445.37,203.659 h -12.777 c -4.484,0 -5.337,-5.569 -5.337,-10.054 v -74.401 c 0,-14.534 -0.337,-23.955 7.041,-50.945 3.744,-13.695 3.71,-22.166 3.71,-33.428 0,-11.263 -7.884,-2.644 -7.884,-2.644 l -25.671,105.666 9.275,71.714 h 31.643"
                   style="fill:#656565"
                   id="path263" /></g><path
                 id="colle"
                 d="m 421.686,121.128 c 5.091,1.087 12.925,1.784 21.705,1.784 8.549,0 16.2,-0.66 21.296,-1.698 l -0.002,62.635 c -15.852,2.404 -30.17,1.943 -42.999,-0.38 z"
                 style="fill:#ae9a76;fill-opacity:0" /><clipPath
                 id="_clip9"><path
                   d="m 421.686,121.128 c 5.091,1.087 12.925,1.784 21.705,1.784 8.549,0 16.2,-0.66 21.296,-1.698 l -0.002,62.635 c -15.852,2.404 -30.17,1.943 -42.999,-0.38 z"
                   id="path268" /></clipPath><g
                 clip-path="url(#_clip9)"
                 id="g298"><path
                   id="colle1"
                   serif:id="colle"
                   d="m 421.686,121.128 c 5.091,1.087 12.925,1.784 21.705,1.784 8.549,0 16.2,-0.66 21.296,-1.698 v 62.644 c -15.186,2.438 -29.454,1.9 -43.001,-0.389 z"
                   style="fill:#262626" /><g
                   id="g296"><path
                     d="m 424.565,168.685 c 5.012,0.84 11.882,1.359 19.457,1.359 6.764,0 12.967,-0.414 17.786,-1.101"
                     style="fill:none;stroke:#d8d8d8;stroke-width:0.66px"
                     id="path272" /><path
                     d="m 424.565,161.325 c 5.012,0.841 11.882,1.359 19.457,1.359 6.764,0 12.967,-0.413 17.786,-1.1"
                     style="fill:none;stroke:#d8d8d8;stroke-width:0.66px"
                     id="path274" /><path
                     d="m 424.565,170.528 c 5.012,0.84 11.882,1.359 19.457,1.359 6.764,0 12.967,-0.414 17.786,-1.101"
                     style="fill:none;stroke:#d8d8d8;stroke-width:0.66px"
                     id="path276" /><path
                     d="m 424.565,163.168 c 5.012,0.84 11.882,1.359 19.457,1.359 6.764,0 12.967,-0.414 17.786,-1.101"
                     style="fill:none;stroke:#d8d8d8;stroke-width:0.66px"
                     id="path278" /><path
                     d="m 424.565,172.37 c 5.012,0.841 11.882,1.359 19.457,1.359 6.764,0 12.967,-0.413 17.786,-1.1"
                     style="fill:none;stroke:#d8d8d8;stroke-width:0.66px"
                     id="path280" /><path
                     d="m 424.565,165.011 c 5.012,0.84 11.882,1.359 19.457,1.359 6.764,0 12.967,-0.414 17.786,-1.101"
                     style="fill:none;stroke:#d8d8d8;stroke-width:0.66px"
                     id="path282" /><path
                     d="m 424.565,174.213 c 5.012,0.841 11.882,1.359 19.457,1.359 6.764,0 12.967,-0.413 17.786,-1.1"
                     style="fill:none;stroke:#d8d8d8;stroke-width:0.66px"
                     id="path284" /><path
                     d="m 424.565,166.854 c 5.012,0.84 11.882,1.359 19.457,1.359 6.764,0 12.967,-0.414 17.786,-1.101"
                     style="fill:none;stroke:#d8d8d8;stroke-width:0.66px"
                     id="path286" /><path
                     d="m 424.565,176.056 c 5.012,0.84 11.882,1.359 19.457,1.359 6.764,0 12.967,-0.414 17.786,-1.101"
                     style="fill:none;stroke:#d8d8d8;stroke-width:0.66px"
                     id="path288" /><path
                     d="m 424.565,177.899 c 5.012,0.84 11.882,1.359 19.457,1.359 6.764,0 12.967,-0.414 17.786,-1.101"
                     style="fill:none;stroke:#d8d8d8;stroke-width:0.66px"
                     id="path290" /><path
                     d="m 424.565,179.741 c 5.012,0.841 11.882,1.36 19.457,1.36 6.764,0 12.967,-0.414 17.786,-1.101"
                     style="fill:none;stroke:#d8d8d8;stroke-width:0.66px"
                     id="path292" /><path
                     d="m 424.565,181.584 c 5.012,0.841 11.882,1.359 19.457,1.359 6.764,0 12.967,-0.413 17.786,-1.1"
                     style="fill:none;stroke:#d8d8d8;stroke-width:0.66px"
                     id="path294" /></g></g><path
                 d="m 444.982,34.906 c 0.407,16.35 1.855,27.4 4,41.033 2.757,17.535 2.347,19.15 2.347,33.9 0,13.442 0.425,84.996 0.5,97.585 2.504,-0.008 4.433,-0.037 5.951,-0.125 v -89.272 c 0,-14.751 0.259,-23.55 -4.14,-40.629 -3.447,-13.382 -4.352,-33.754 -4.583,-41.948 -1.073,-0.217 -2.46,-0.433 -4.075,-0.544 z"
                 style="fill:#ffffff;fill-opacity:0.5"
                 id="path300" /><path
                 d="m 442.782,23.983 c 6.133,0 7.732,0.842 7.732,0.842 1.816,0.709 1.24,1.462 1.24,1.462 1.506,1.373 0.266,2.79 0.266,2.79 1.24,1.063 -0.222,2.437 -0.222,2.437 3.057,2.392 0.133,4.74 0.133,4.74 -4.252,-1.241 -9.149,-1.423 -9.149,-1.423 0,0 -4.897,0.182 -9.149,1.423 0,0 -2.924,-2.348 0.133,-4.74 0,0 -1.462,-1.374 -0.222,-2.437 0,0 -1.24,-1.417 0.266,-2.79 0,0 -0.576,-0.753 1.24,-1.462 0,0 1.599,-0.842 7.732,-0.842 6.133,0 -6.133,0 0,0 z"
                 style="fill:#e0e0e0"
                 id="path302" /><clipPath
                 id="_clip10"><path
                   d="m 442.782,23.983 c 6.133,0 7.732,0.842 7.732,0.842 1.816,0.709 1.24,1.462 1.24,1.462 1.506,1.373 0.266,2.79 0.266,2.79 1.24,1.063 -0.222,2.437 -0.222,2.437 3.057,2.392 0.133,4.74 0.133,4.74 -4.252,-1.241 -9.149,-1.423 -9.149,-1.423 0,0 -4.897,0.182 -9.149,1.423 0,0 -2.924,-2.348 0.133,-4.74 0,0 -1.462,-1.374 -0.222,-2.437 0,0 -1.24,-1.417 0.266,-2.79 0,0 -0.576,-0.753 1.24,-1.462 0,0 1.599,-0.842 7.732,-0.842 6.133,0 -6.133,0 0,0 z"
                   id="path304" /></clipPath><g
                 clip-path="url(#_clip10)"
                 id="g313"><path
                   d="m 453.549,28.004 c -3.014,-0.428 -8.354,-0.784 -10.767,-0.784 -2.413,0 -7.753,0.356 -10.767,0.784 v 1.267 c 3.014,-0.429 8.354,-0.896 10.767,-0.896 2.413,0 7.753,0.467 10.767,0.896 z"
                   style="fill:#b4b4b4"
                   id="path307" /><path
                   d="m 453.549,30.474 c -3.014,-0.428 -8.354,-0.784 -10.767,-0.784 -2.413,0 -7.753,0.356 -10.767,0.784 v 1.267 c 3.014,-0.429 8.354,-0.896 10.767,-0.896 2.413,0 7.753,0.467 10.767,0.896 z"
                   style="fill:#b4b4b4"
                   id="path309" /><path
                   d="m 442.782,32.78 c 2.413,0 7.753,0.29 10.767,1.882 2.195,1.159 -1.194,1.592 -1.194,1.592 l -9.573,-0.882 -9.573,0.882 c 0,0 -3.388,-0.433 -1.194,-1.592 3.014,-1.592 8.354,-1.882 10.767,-1.882 z"
                   style="fill:#b4b4b4"
                   id="path311" /></g></g><g
               id="new_flask1"
               serif:id="new_flask"><path
                 d="m 547.351,36.805 c -6.134,0 -7.732,0.841 -7.732,0.841 -1.816,0.709 -1.24,1.462 -1.24,1.462 -1.507,1.373 -0.266,2.791 -0.266,2.791 -1.241,1.063 0.221,2.436 0.221,2.436 -3.056,2.392 -0.133,4.74 -0.133,4.74 0.147,-0.043 0.295,-0.084 0.443,-0.125 -0.022,17.598 -9.863,46.143 -9.863,46.143 -5.71,17.044 -4.914,33.519 -4.914,33.519 0,0 0.148,66.787 0.148,76.92 0,10.133 2.671,12.879 2.671,12.879 2.065,2.065 5.23,1.828 20.665,1.828 15.434,0 18.599,0.237 20.664,-1.828 0,0 2.671,-2.746 2.671,-12.879 0,-10.133 0.148,-76.92 0.148,-76.92 0,0 0.797,-16.475 -4.914,-33.519 0,0 -9.841,-28.545 -9.862,-46.143 0.148,0.041 0.295,0.082 0.442,0.125 0,0 2.924,-2.348 -0.133,-4.74 0,0 1.462,-1.373 0.221,-2.436 0,0 1.241,-1.418 -0.265,-2.791 0,0 0.576,-0.753 -1.241,-1.462 0,0 -1.598,-0.841 -7.731,-0.841 z m 0,10.847 c 0,0 0,0 0,0 z"
                 style="fill:#ffffff;stroke:#feffd7;stroke-width:5.69px;stroke-linejoin:miter"
                 id="path316" /><path
                 d="m 546.946,47.863 c 5.136,0 8.707,1.241 8.707,1.241 0,17.592 9.863,46.2 9.863,46.2 5.71,17.044 4.914,33.519 4.914,33.519 0,0 -0.148,66.787 -0.148,76.92 0,10.133 -2.671,12.878 -2.671,12.878 -2.066,2.066 -5.23,1.829 -20.665,1.829 -15.434,0 -18.599,0.237 -20.664,-1.829 0,0 -2.672,-2.745 -2.672,-12.878 0,-10.133 -0.147,-76.92 -0.147,-76.92 0,0 -0.797,-16.475 4.913,-33.519 0,0 9.863,-28.608 9.863,-46.2 0,0 3.571,-1.241 8.707,-1.241 5.136,0 -5.136,0 0,0 z"
                 style="fill:#fbfaa7"
                 id="path318" /><clipPath
                 id="_clip11"><path
                   d="m 546.946,47.863 c 5.136,0 8.707,1.241 8.707,1.241 0,17.592 9.863,46.2 9.863,46.2 5.71,17.044 4.914,33.519 4.914,33.519 0,0 -0.148,66.787 -0.148,76.92 0,10.133 -2.671,12.878 -2.671,12.878 -2.066,2.066 -5.23,1.829 -20.665,1.829 -15.434,0 -18.599,0.237 -20.664,-1.829 0,0 -2.672,-2.745 -2.672,-12.878 0,-10.133 -0.147,-76.92 -0.147,-76.92 0,0 -0.797,-16.475 4.913,-33.519 0,0 9.863,-28.608 9.863,-46.2 0,0 3.571,-1.241 8.707,-1.241 5.136,0 -5.136,0 0,0 z"
                   id="path320" /></clipPath><g
                 clip-path="url(#_clip11)"
                 id="g327"><path
                   d="m 546.946,216.692 h 12.777 c 4.485,0 5.337,-5.569 5.337,-10.054 v -74.401 c 0,-14.535 0.337,-23.956 -7.041,-50.945 -3.744,-13.696 -3.71,-22.167 -3.71,-33.429 0,-11.262 7.884,-2.644 7.884,-2.644 l 25.671,105.667 -9.275,71.713 h -31.643"
                   style="fill:#ded382"
                   id="path323" /><path
                   d="m 549.534,216.692 h -12.776 c -4.485,0 -5.337,-5.569 -5.337,-10.054 v -74.401 c 0,-14.535 -0.338,-23.956 7.04,-50.945 3.745,-13.696 3.71,-22.167 3.71,-33.429 0,-11.262 -7.884,-2.644 -7.884,-2.644 l -25.671,105.667 9.275,71.713 h 31.643"
                   style="fill:#ded382"
                   id="path325" /></g><path
                 id="colle2"
                 serif:id="colle"
                 d="m 525.85,134.161 c 5.091,1.087 12.925,1.784 21.706,1.784 8.548,0 16.199,-0.661 21.295,-1.699 l -10e-4,62.635 c -15.853,2.405 -30.171,1.943 -43,-0.379 z"
                 style="fill:#ae9a76;fill-opacity:0" /><clipPath
                 id="_clip12"><path
                   d="m 525.85,134.161 c 5.091,1.087 12.925,1.784 21.706,1.784 8.548,0 16.199,-0.661 21.295,-1.699 l -10e-4,62.635 c -15.853,2.405 -30.171,1.943 -43,-0.379 z"
                   id="path330" /></clipPath><g
                 clip-path="url(#_clip12)"
                 id="g397"><path
                   id="colle3"
                   serif:id="colle"
                   d="m 525.85,134.161 c 5.091,1.087 12.925,1.784 21.706,1.784 8.548,0 16.199,-0.661 21.295,-1.699 v 62.645 c -15.185,2.438 -29.453,1.9 -43.001,-0.389 z"
                   style="fill:#f5e7cd" /><clipPath
                   id="_clip13"><path
                     id="colle4"
                     serif:id="colle"
                     d="m 525.85,134.161 c 5.091,1.087 12.925,1.784 21.706,1.784 8.548,0 16.199,-0.661 21.295,-1.699 v 62.645 c -15.185,2.438 -29.453,1.9 -43.001,-0.389 z" /></clipPath><g
                   clip-path="url(#_clip13)"
                   id="g374"><g
                     id="g372"><circle
                       cx="547.45898"
                       cy="157.28"
                       r="17.341"
                       style="fill:none;stroke:#7c2923;stroke-width:1.37px"
                       id="circle336" /><g
                       id="Banner"><path
                         d="m 536.552,165.647 c 0,0 0.623,2.98 0.502,3.883 -0.121,0.903 -2.909,-1.377 -2.909,-1.377 0.525,-1.823 1.35,-2.513 2.407,-2.506 z"
                         style="fill:#f3ead9;stroke:#7c2923;stroke-width:0.37px"
                         id="path338" /><path
                         d="m 558.165,166.634 c 0,0 0.533,2.174 0.192,2.771 -0.341,0.598 2.638,-1.574 2.638,-1.574 l -0.852,-1.435 z"
                         style="fill:#f3ead9;stroke:#7c2923;stroke-width:0.37px"
                         id="path340" /><path
                         d="m 530.543,165.726 c 0,0 3.068,-2.182 6.012,-0.108 0,0 -0.873,0.5 -1.45,2.218 0,0 18.148,6.761 25.2,0.042 -0.437,-0.226 -0.994,-0.836 -2.162,-1.267 0,0 3.334,-1.494 5.062,0.299 l -2.07,2.924 c 0,0 1.101,0.422 2.929,3.568 0,0 -2.385,-1.535 -3.177,-0.499 0,0 0.071,1.305 -0.135,2.842 0,0 -17.522,5.958 -26.484,-0.796 0,0 0.765,-0.958 0.908,-3.01 0,0 -2.891,-0.334 -3.492,1.19 -0.601,1.525 -0.102,-4.056 1.234,-4.399 z"
                         style="fill:#7c2923"
                         id="path342" /><clipPath
                         id="_clip14"><path
                           d="m 530.543,165.726 c 0,0 3.068,-2.182 6.012,-0.108 0,0 -0.873,0.5 -1.45,2.218 0,0 18.148,6.761 25.2,0.042 -0.437,-0.226 -0.994,-0.836 -2.162,-1.267 0,0 3.334,-1.494 5.062,0.299 l -2.07,2.924 c 0,0 1.101,0.422 2.929,3.568 0,0 -2.385,-1.535 -3.177,-0.499 0,0 0.071,1.305 -0.135,2.842 0,0 -17.522,5.958 -26.484,-0.796 0,0 0.765,-0.958 0.908,-3.01 0,0 -2.891,-0.334 -3.492,1.19 -0.601,1.525 -0.102,-4.056 1.234,-4.399 z"
                           id="path344" /></clipPath><g
                         clip-path="url(#_clip14)"
                         id="g349"><path
                           d="m 535.109,167.896 24.161,-0.561 1.039,0.549 c 0.283,0.009 0.754,5.596 0.426,8.439 -0.69,5.978 -26.813,2.923 -27.355,-0.771 0,0 2.646,-0.337 1.729,-7.656 z"
                           style="fill:#7c2923;stroke:#f3ead9;stroke-width:0.3px"
                           id="path347" /></g><path
                         d="m 530.543,165.726 c 0,0 3.068,-2.182 6.012,-0.108 0,0 -0.873,0.5 -1.45,2.218 0,0 18.148,6.761 25.2,0.042 -0.437,-0.226 -0.994,-0.836 -2.162,-1.267 0,0 3.334,-1.494 5.062,0.299 l -2.07,2.924 c 0,0 1.101,0.422 2.929,3.568 0,0 -2.385,-1.535 -3.177,-0.499 0,0 0.071,1.305 -0.135,2.842 0,0 -17.522,5.958 -26.484,-0.796 0,0 0.765,-0.958 0.908,-3.01 0,0 -2.891,-0.334 -3.492,1.19 -0.601,1.525 -0.102,-4.056 1.234,-4.399 z"
                         style="fill:none;stroke:#f3ead9;stroke-width:0.37px"
                         id="path351" /></g><g
                       id="Layer1"><g
                         id="ascii-man"
                         serif:id="ascii man"><path
                           d="m 553.61,164.521 h -13.218 l 1.269,5.593 c 2.83,0.541 5.754,0.751 8.724,0.799 z"
                           style="fill:#f3ead9"
                           id="path354" /><path
                           d="m 548.573,170.037 c -0.759,1.083 0.056,2.534 1.307,1.72 0.154,0.425 0.7,1.383 2.034,1.296 2.273,-0.146 2.051,-1.978 1.712,-3.552 -0.594,-2.763 -2.679,-4.299 -2.721,-4.566"
                           style="fill:#f3ead9;stroke:#7c2923;stroke-width:1.37px"
                           id="path356" /><path
                           d="m 541.113,164.521 c 0.477,2.326 -3.867,1.459 -4.026,5.078 -0.089,2.044 2.255,2.72 3.641,0.766 0,0 0.471,0.874 1.141,0.614 0.59,-0.23 0.83,-0.739 0.84,-1.432"
                           style="fill:#f3ead9;stroke:#7c2923;stroke-width:1.37px"
                           id="path358" /><path
                           d="m 542.739,170.236 c 0,0 2.59,0.638 5.379,0.774"
                           style="fill:none;stroke:#f3ead9;stroke-width:0.37px"
                           id="path360" /><path
                           d="m 550.647,145.62 c -0.937,-1.405 -0.966,-2.625 -0.966,-2.625 -0.688,1.005 -1.227,1.703 -1.64,2.187 -1.482,-0.067 -3.001,0.168 -4.471,0.742 -5.629,2.2 -8.413,8.556 -6.213,14.185 2.199,5.629 8.555,8.413 14.184,6.213 5.629,-2.2 8.413,-8.556 6.214,-14.184 -0.284,-0.726 -0.636,-1.404 -1.047,-2.03 0.473,-1.278 1.126,-2.093 1.126,-2.093 -1.007,0.393 -1.906,0.434 -2.507,0.392 -0.29,-0.292 -0.596,-0.566 -0.915,-0.822 -0.302,-2.009 0.342,-3.765 0.342,-3.765 -0.712,0.949 -2.294,1.757 -3.132,2.138 -0.319,-0.127 -0.645,-0.24 -0.975,-0.338 z"
                           style="fill:#f3ead9;stroke:#7c2923;stroke-width:1.37px"
                           id="path362" /><path
                           d="m 549.238,156.413 c 0.025,0.196 -0.195,-2.036 -2.255,-1.351"
                           style="fill:none;stroke:#7c2923;stroke-width:1.37px"
                           id="path364" /><path
                           d="m 543.764,153.474 c 0.026,0.197 -0.195,-2.036 -2.255,-1.35"
                           style="fill:none;stroke:#7c2923;stroke-width:1.37px"
                           id="path366" /><path
                           d="m 539.334,155.436 c -0.171,1.407 1.496,8.571 10.89,6.934"
                           style="fill:none;stroke:#7c2923;stroke-width:1.37px"
                           id="path368" /></g></g></g></g><g
                   id="Layer11"
                   serif:id="Layer1"><path
                     d="m 571.613,177.699 6.308,26.571 h -56.935 v -26.793 c 1.639,0.164 3.244,0.309 4.824,0.436 5.051,1.185 13.237,1.955 22.47,1.955 9.779,0 18.384,-0.864 23.333,-2.169 z"
                     style="fill:#7c2923"
                     id="path376" /><g
                     id="g394"><path
                       d="m 528.729,181.717 c 5.012,0.841 11.883,1.359 19.457,1.359 6.764,0 12.967,-0.413 17.786,-1.1"
                       style="fill:none;stroke:#f3ead9;stroke-width:0.66px"
                       id="path378" /><path
                       d="m 528.729,183.56 c 5.012,0.84 11.883,1.359 19.457,1.359 6.764,0 12.967,-0.414 17.786,-1.101"
                       style="fill:none;stroke:#f3ead9;stroke-width:0.66px"
                       id="path380" /><path
                       d="m 528.729,185.403 c 5.012,0.84 11.883,1.359 19.457,1.359 6.764,0 12.967,-0.414 17.786,-1.101"
                       style="fill:none;stroke:#f3ead9;stroke-width:0.66px"
                       id="path382" /><path
                       d="m 528.729,187.245 c 5.012,0.841 11.883,1.359 19.457,1.359 6.764,0 12.967,-0.413 17.786,-1.1"
                       style="fill:none;stroke:#f3ead9;stroke-width:0.66px"
                       id="path384" /><path
                       d="m 528.729,189.088 c 5.012,0.841 11.883,1.359 19.457,1.359 6.764,0 12.967,-0.413 17.786,-1.1"
                       style="fill:none;stroke:#f3ead9;stroke-width:0.66px"
                       id="path386" /><path
                       d="m 528.729,190.931 c 5.012,0.84 11.883,1.359 19.457,1.359 6.764,0 12.967,-0.414 17.786,-1.101"
                       style="fill:none;stroke:#f3ead9;stroke-width:0.66px"
                       id="path388" /><path
                       d="m 528.729,192.774 c 5.012,0.84 11.883,1.359 19.457,1.359 6.764,0 12.967,-0.414 17.786,-1.101"
                       style="fill:none;stroke:#f3ead9;stroke-width:0.66px"
                       id="path390" /><path
                       d="m 528.729,194.616 c 5.012,0.841 11.883,1.36 19.457,1.36 6.764,0 12.967,-0.414 17.786,-1.101"
                       style="fill:none;stroke:#f3ead9;stroke-width:0.66px"
                       id="path392" /></g></g></g><path
                 d="m 549.147,47.938 c 0.407,16.35 1.855,27.4 3.999,41.033 2.758,17.535 2.347,19.15 2.347,33.9 0,13.443 0.425,84.997 0.5,97.585 2.504,-0.007 4.434,-0.036 5.951,-0.124 v -89.273 c 0,-14.751 0.259,-23.549 -4.14,-40.629 -3.447,-13.382 -4.352,-33.754 -4.582,-41.948 -1.074,-0.216 -2.461,-0.433 -4.075,-0.544 z"
                 style="fill:#ffffff;fill-opacity:0.5"
                 id="path399" /><path
                 d="m 546.946,37.015 c 6.134,0 7.732,0.842 7.732,0.842 1.816,0.709 1.24,1.462 1.24,1.462 1.506,1.373 0.266,2.791 0.266,2.791 1.24,1.063 -0.221,2.436 -0.221,2.436 3.056,2.392 0.133,4.74 0.133,4.74 -4.253,-1.241 -9.15,-1.423 -9.15,-1.423 0,0 -4.896,0.182 -9.149,1.423 0,0 -2.924,-2.348 0.133,-4.74 0,0 -1.462,-1.373 -0.222,-2.436 0,0 -1.24,-1.418 0.266,-2.791 0,0 -0.576,-0.753 1.241,-1.462 0,0 1.598,-0.842 7.731,-0.842 6.134,0 -6.133,0 0,0 z"
                 style="fill:#f0e621"
                 id="path401" /><clipPath
                 id="_clip15"><path
                   d="m 546.946,37.015 c 6.134,0 7.732,0.842 7.732,0.842 1.816,0.709 1.24,1.462 1.24,1.462 1.506,1.373 0.266,2.791 0.266,2.791 1.24,1.063 -0.221,2.436 -0.221,2.436 3.056,2.392 0.133,4.74 0.133,4.74 -4.253,-1.241 -9.15,-1.423 -9.15,-1.423 0,0 -4.896,0.182 -9.149,1.423 0,0 -2.924,-2.348 0.133,-4.74 0,0 -1.462,-1.373 -0.222,-2.436 0,0 -1.24,-1.418 0.266,-2.791 0,0 -0.576,-0.753 1.241,-1.462 0,0 1.598,-0.842 7.731,-0.842 6.134,0 -6.133,0 0,0 z"
                   id="path403" /></clipPath><g
                 clip-path="url(#_clip15)"
                 id="g412"><path
                   d="m 557.713,41.037 c -3.014,-0.429 -8.354,-0.785 -10.767,-0.785 -2.412,0 -7.753,0.356 -10.767,0.785 v 1.266 c 3.014,-0.429 8.355,-0.896 10.767,-0.896 2.413,0 7.753,0.467 10.767,0.896 z"
                   style="fill:#cbb61b"
                   id="path406" /><path
                   d="m 557.713,43.507 c -3.014,-0.429 -8.354,-0.785 -10.767,-0.785 -2.412,0 -7.753,0.356 -10.767,0.785 v 1.266 c 3.014,-0.429 8.355,-0.896 10.767,-0.896 2.413,0 7.753,0.467 10.767,0.896 z"
                   style="fill:#cbb61b"
                   id="path408" /><path
                   d="m 546.946,45.812 c 2.413,0 7.753,0.29 10.767,1.882 2.195,1.159 -1.194,1.592 -1.194,1.592 l -9.573,-0.881 -9.573,0.881 c 0,0 -3.388,-0.433 -1.194,-1.592 3.014,-1.592 8.355,-1.882 10.767,-1.882 z"
                   style="fill:#cbb61b"
                   id="path410" /></g></g><g
               id="new_cup1"
               serif:id="new_cup"><path
                 d="m 449.777,157.451 c 0,-2.704 11.785,-4.9 26.301,-4.9 14.516,0 26.301,2.196 26.301,4.9 v 0.14 c 0,13.699 -2.712,28.826 -6.405,35.578 -3.692,8.341 -4.375,20.921 -4.375,24.203 -5.416,3.521 -25.436,4.101 -31.041,0 0,-3.282 -1.605,-15.513 -4.376,-24.203 -3.51,-11.009 -8.199,-14.493 -16.831,-14.493 -8.632,0 -9.09,-10.782 -9.09,-12.159 0,-1.376 0.43,-6.872 10.409,-6.452 8.414,0.354 9.074,-1.471 9.108,-2.201 l -0.001,-0.152 c -0.002,-0.057 -0.005,-0.098 0,-0.121 z m -8.839,6.481 c 5.953,-0.146 6.474,1.37 6.494,5.846 0.019,4.314 -1.9,5.124 -6.245,5.073 -4.079,-0.047 -5.256,-1.692 -6.277,-4.908 -1.507,-4.746 0.85,-5.885 6.028,-6.011 z"
                 style="fill:#3eefff"
                 id="path415" /><clipPath
                 id="_clip16"><path
                   d="m 449.777,157.451 c 0,-2.704 11.785,-4.9 26.301,-4.9 14.516,0 26.301,2.196 26.301,4.9 v 0.14 c 0,13.699 -2.712,28.826 -6.405,35.578 -3.692,8.341 -4.375,20.921 -4.375,24.203 -5.416,3.521 -25.436,4.101 -31.041,0 0,-3.282 -1.605,-15.513 -4.376,-24.203 -3.51,-11.009 -8.199,-14.493 -16.831,-14.493 -8.632,0 -9.09,-10.782 -9.09,-12.159 0,-1.376 0.43,-6.872 10.409,-6.452 8.414,0.354 9.074,-1.471 9.108,-2.201 l -0.001,-0.152 c -0.002,-0.057 -0.005,-0.098 0,-0.121 z m -8.839,6.481 c 5.953,-0.146 6.474,1.37 6.494,5.846 0.019,4.314 -1.9,5.124 -6.245,5.073 -4.079,-0.047 -5.256,-1.692 -6.277,-4.908 -1.507,-4.746 0.85,-5.885 6.028,-6.011 z"
                   id="path417" /></clipPath><g
                 clip-path="url(#_clip16)"
                 id="g428"><path
                   d="m 462.521,150.946 c 0,0 -3.929,16.564 4.036,40.785 3.101,9.432 1.912,28.348 2.443,30.26 0.531,1.912 -16.463,2.507 -16.463,2.507 l -17.206,-34.519 c 0,0 -13.171,-26.022 -12.321,-27.509 0.85,-1.487 14.339,-12.958 14.339,-12.958 z"
                   style="fill:#00d2e6"
                   id="path420" /><path
                   d="m 494.384,149.751 c 0,0 3.928,16.565 -4.036,40.785 -3.102,9.432 -1.912,28.349 -2.443,30.26 -0.531,1.912 16.462,2.507 16.462,2.507 l 17.207,-34.519 c 0,0 13.17,-26.022 12.32,-27.509 -0.849,-1.487 -14.338,-12.958 -14.338,-12.958 z"
                   style="fill:#00d2e6"
                   id="path422" /><path
                   d="m 491.32,149.087 c 0,0 -2.124,29.009 -4.779,40.095 -2.527,10.549 -3.452,27.748 -3.452,33.457 0,5.709 -2.655,0 -2.655,0 0,0 -1.032,-22.66 1.593,-34.254 2.788,-12.313 1.062,-38.83 1.593,-39.431 0.531,-0.6 7.7,0.133 7.7,0.133 z"
                   style="fill:#99f7ff"
                   id="path424" /><path
                   d="m 452.186,185.81 c 3.458,16.069 -3.434,8.737 -3.434,8.737 l -20.802,-1.309 -9.42,-26.165 15.931,-17.008 16.23,8.158 c 0,0 -2.37,9.627 1.495,27.587 z"
                   style="fill:#0bbfd0"
                   id="path426" /></g><path
                 d="m 449.777,157.451 c 0,-2.704 11.785,-4.9 26.301,-4.9 14.516,0 26.301,2.196 26.301,4.9 v 0.14 c 0,13.699 -2.712,28.826 -6.405,35.578 -3.692,8.341 -4.375,20.921 -4.375,24.203 -5.416,3.521 -25.436,4.101 -31.041,0 0,-3.282 -1.605,-15.513 -4.376,-24.203 -3.51,-11.009 -8.199,-14.493 -16.831,-14.493 -8.632,0 -9.09,-10.782 -9.09,-12.159 0,-1.376 0.43,-6.872 10.409,-6.452 8.414,0.354 9.074,-1.471 9.108,-2.201 l -0.001,-0.152 c -0.002,-0.057 -0.005,-0.098 0,-0.121 z m -8.839,6.481 c 5.953,-0.146 6.474,1.37 6.494,5.846 0.019,4.314 -1.9,5.124 -6.245,5.073 -4.079,-0.047 -5.256,-1.692 -6.277,-4.908 -1.507,-4.746 0.85,-5.885 6.028,-6.011 z"
                 style="fill:none;stroke:#ccfbff;stroke-width:1.91px;stroke-linejoin:miter"
                 id="path430" /><ellipse
                 cx="476.078"
                 cy="157.451"
                 rx="25.259001"
                 ry="4.448"
                 style="fill:#00d2e6"
                 id="ellipse432" /><clipPath
                 id="_clip17"><ellipse
                   cx="476.078"
                   cy="157.451"
                   rx="25.259001"
                   ry="4.448"
                   id="ellipse434" /></clipPath><g
                 clip-path="url(#_clip17)"
                 id="g450"><path
                   d="m 495.145,147.657 c 0,0 -1.675,29.039 -4.158,40.164 -2.364,10.587 -3.022,27.798 -2.934,33.506 0.088,5.708 -2.655,0.041 -2.655,0.041 0,0 -1.382,-22.64 1.063,-34.274 2.597,-12.355 0.461,-38.842 0.983,-39.451 0.521,-0.608 7.701,0.014 7.701,0.014 z"
                   style="fill:#4cf0ff"
                   id="path437" /><ellipse
                   cx="476.078"
                   cy="160.347"
                   rx="25.259001"
                   ry="4.448"
                   style="fill:#886d44"
                   id="ellipse439" /><clipPath
                   id="_clip18"><ellipse
                     cx="476.078"
                     cy="160.347"
                     rx="25.259001"
                     ry="4.448"
                     id="ellipse441" /></clipPath><g
                   clip-path="url(#_clip18)"
                   id="g448"><path
                     d="m 489.84,159.343 c -3.32,-1.217 -10.061,-1.798 -16.513,-1.804 -4.178,-0.004 -8.234,0.191 -11.17,0.758 -1.275,0.246 -2.349,0.559 -3.137,0.933 -0.586,0.279 -1.037,0.594 -1.327,0.925 -0.397,0.453 -0.599,0.922 -0.552,1.4 0.041,0.425 0.191,0.894 0.659,1.311 0.385,0.345 0.951,0.717 1.801,1.032 0.724,0.268 1.612,0.505 2.744,0.735 0.035,0.013 0.074,-0.005 0.087,-0.04 0.013,-0.035 -0.005,-0.073 -0.04,-0.086 -1.492,-0.821 -2.464,-1.524 -3.087,-2.129 -0.321,-0.313 -0.476,-0.572 -0.49,-0.809 -0.002,-0.022 0.049,0.001 0.061,-0.018 0.038,-0.061 0.114,-0.094 0.185,-0.15 0.192,-0.153 0.456,-0.281 0.768,-0.422 0.695,-0.314 1.621,-0.609 2.724,-0.88 2.831,-0.697 6.741,-1.281 10.806,-1.536 6.381,-0.402 13.088,-0.121 16.438,0.908 0.035,0.011 0.073,-0.008 0.085,-0.043 0.012,-0.035 -0.007,-0.073 -0.042,-0.085 z"
                     style="fill:#bba077"
                     id="path444" /><path
                     d="m 477.957,159.776 c 3.366,0.122 13.26,1.497 15.996,3.806 0.233,0.196 0.391,0.396 0.433,0.611 0.021,0.109 -0.043,0.209 -0.117,0.324 -0.101,0.159 -0.267,0.308 -0.475,0.475 -0.426,0.339 -1.045,0.67 -1.865,1.042 -0.598,0.271 -1.308,0.532 -2.115,0.853 -0.199,0.079 -0.406,0.157 -0.608,0.262 -0.201,0.104 -0.379,0.228 -0.58,0.359 -0.236,0.155 -0.443,0.305 -0.686,0.481 -0.355,0.255 -0.649,0.491 -1.031,0.771 -0.053,0.016 -0.083,0.071 -0.067,0.123 0.016,0.053 0.071,0.083 0.124,0.067 0.477,0.024 0.857,0.049 1.298,0.051 0.307,0.002 0.568,-0.006 0.857,-0.026 0.247,-0.017 0.471,-0.035 0.701,-0.082 0.234,-0.048 0.453,-0.125 0.665,-0.2 1.689,-0.596 2.883,-1.271 3.71,-1.853 1.259,-0.886 1.734,-1.75 1.743,-2.469 0.008,-0.69 -0.342,-1.359 -1.115,-1.912 -3.03,-2.167 -13.364,-3.008 -16.868,-2.881 -0.055,0 -0.099,0.044 -0.099,0.099 0,0.055 0.044,0.099 0.099,0.099 z"
                     style="fill:#bba077"
                     id="path446" /></g></g><path
                 d="m 476.078,153.004 c 13.941,0 25.259,1.993 25.259,4.447 0,2.455 -11.318,4.448 -25.259,4.448 -13.94,0 -25.258,-1.993 -25.258,-4.448 0,-2.454 11.318,-4.447 25.258,-4.447 z m 23.525,4.398 c -0.192,0.137 -0.445,0.302 -0.692,0.419 -1.951,0.919 -5.408,1.784 -9.815,2.419 -1.227,0.177 -2.523,0.346 -3.881,0.472 -2.829,0.264 -5.912,0.392 -9.137,0.44 -3.725,-0.051 -7.263,-0.204 -10.436,-0.543 -0.893,-0.095 -1.754,-0.217 -2.584,-0.342 -4.402,-0.663 -7.846,-1.566 -9.789,-2.499 -0.221,-0.107 -0.414,-0.221 -0.59,-0.322 l -0.149,-0.089 c 0.212,-0.11 0.477,-0.226 0.692,-0.329 1.95,-0.934 5.406,-1.859 9.829,-2.454 3.788,-0.509 8.254,-0.741 13.027,-0.797 4.773,0.064 9.239,0.301 13.025,0.82 4.417,0.605 7.86,1.554 9.808,2.484 0.215,0.103 0.481,0.215 0.692,0.321 z m 0.235,0.134 c 0.063,0.042 0.107,0.082 0.123,0.118 0.017,0.037 0.006,0.069 -0.04,0.097 -0.077,0.046 -0.084,-0.101 -0.083,-0.215 z m -47.558,-0.034 c 0.001,0.054 0,0.121 -0.012,0.17 -0.011,0.048 -0.032,0.077 -0.071,0.055 -0.096,-0.056 -0.045,-0.135 0.083,-0.225 z"
                 style="fill:#00bacc"
                 id="path452" /><path
                 d="m 455.195,158.563 c -0.344,-0.11 -0.644,-0.217 -0.91,-0.32 -0.608,-0.233 -1.009,-0.445 -1.228,-0.649 -0.125,-0.116 -0.176,-0.218 -0.128,-0.322 0.041,-0.089 0.139,-0.164 0.27,-0.248 0.23,-0.145 0.567,-0.278 0.992,-0.414 0.494,-0.157 1.106,-0.306 1.809,-0.458 0.561,-0.122 1.18,-0.247 1.847,-0.37 1.277,-0.236 2.726,-0.47 4.268,-0.68 1.38,-0.189 2.833,-0.364 4.301,-0.52 4.878,-0.518 9.92,-0.819 12.98,-0.713 -3.06,-0.208 -8.119,-0.09 -13.02,0.281 -1.477,0.112 -2.94,0.247 -4.329,0.405 -1.558,0.176 -3.025,0.375 -4.313,0.604 -0.574,0.102 -1.112,0.209 -1.607,0.325 -0.596,0.139 -1.129,0.289 -1.589,0.442 -0.622,0.207 -1.111,0.423 -1.441,0.637 -0.289,0.188 -0.467,0.38 -0.53,0.564 -0.082,0.242 -0.023,0.494 0.283,0.718 0.259,0.19 0.71,0.378 1.393,0.538 0.278,0.065 0.594,0.123 0.952,0.18 z"
                 style="fill:#99f7ff"
                 id="path454" /><path
                 d="m 496.988,158.615 c 0.225,-0.022 0.43,-0.043 0.625,-0.071 0.636,-0.091 1.108,-0.213 1.447,-0.343 0.269,-0.103 0.452,-0.224 0.571,-0.341 0.109,-0.108 0.161,-0.225 0.184,-0.337 0.037,-0.18 -0.022,-0.367 -0.178,-0.555 -0.153,-0.184 -0.428,-0.373 -0.808,-0.556 -0.22,-0.106 -0.478,-0.211 -0.768,-0.311 -0.346,-0.119 -0.74,-0.232 -1.17,-0.34 -0.862,-0.216 -1.873,-0.413 -2.954,-0.592 -1.475,-0.246 -3.082,-0.455 -4.624,-0.628 -3.161,-0.353 -6.047,-0.546 -6.967,-0.543 0.917,0.042 3.784,0.387 6.921,0.884 1.525,0.242 3.113,0.521 4.572,0.818 1.059,0.215 2.048,0.443 2.894,0.67 0.413,0.111 0.792,0.223 1.128,0.332 0.27,0.087 0.513,0.171 0.723,0.258 0.25,0.104 0.451,0.203 0.588,0.311 0.05,0.038 0.093,0.072 0.121,0.112 0.015,0.023 0.035,0.041 0.033,0.065 -0.005,0.047 -0.033,0.094 -0.082,0.144 -0.081,0.082 -0.195,0.168 -0.351,0.258 -0.302,0.173 -0.731,0.355 -1.313,0.56 -0.185,0.065 -0.378,0.135 -0.592,0.205 z"
                 style="fill:#99f7ff"
                 id="path456" /></g></g></g></g></g></g></svg>
